<?xml version="1.0" encoding="UTF-8"?>
<svg id="Layer_1" data-name="Layer 1" xmlns="http://www.w3.org/2000/svg" version="1.1" viewBox="0 0 595.3 311.8">
  <defs>
    <style>
      .cls-1 {
        font-family: Times-Roman, Times;
        font-size: 24px;
      }

      .cls-1, .cls-2, .cls-3, .cls-4, .cls-5 {
        fill: #000;
      }

      .cls-1, .cls-3 {
        isolation: isolate;
      }

      .cls-6 {
        stroke-miterlimit: 10;
      }

      .cls-6, .cls-2 {
        stroke: #000;
      }

      .cls-6, .cls-2, .cls-7, .cls-5 {
        fill-rule: evenodd;
      }

      .cls-6, .cls-7 {
        fill: #fff;
      }

      .cls-2 {
        stroke-miterlimit: 2.6;
        stroke-width: .2px;
      }

      .cls-3 {
        font-family: BodoniSvtyTwoSCITCTT-Book, 'Bodoni 72 Smallcaps';
        font-size: 48px;
      }

      .cls-8 {
        fill: none;
      }

      .cls-8, .cls-4, .cls-7, .cls-5 {
        stroke-width: 0px;
      }
    </style>
  </defs>
  <path class="cls-4" d="M251.5,124.2c.8,0,.4.8.6,1.2q.4-.9,1.6-.4c-.1.3-.2.6-.3.9,0,0,.1,0,.2,0,.1-.3.3-.7.4-1.1.8.3-.1.6,0,1h.8c0-.2.3-.5.5-.8.2,0,.4.1.6.2,0,.2,0,.4-.1.7.2-.3.3-.5.4-.6.9.2,1.6.4,2.5.6-.2.3-.4.6-.5.9,0,0,0,0,.1,0,.2-.4.5-.8.7-1.1,0,0,0,0,.1,0,0,.3,0,.6-.1,1,0,0,.1,0,.2,0,.3-.3.6-.7.9-1,.1,0,.3.2.5.3.4-1.4.9-2.7.1-4.1-.7-1.3-1.9-2-3.5-2.4.7-.7.9-1.5.5-2.2-.2-.4-.5-.8-.8-1-1.2-1-2.5-1.9-3.8-2.8-.4-.3-.6-.5-.7-1.1,0-1-.3-1.1-1.3-1-.2,0-.5-.2-.6-.4-.5-1.2-.8-1.3-2-.9-.2,0-.5,0-.7,0-.6-.4-1.2-.8-1.7-1.3-.4-.3-.7-.5-1.2-.2-.6.5-1.2.5-1.8,0-.4-.3-.7-.3-1.1,0-.4.4-.8.8-1.3,1-.3.1-.7,0-1,0-.9-.1-1.5,0-2.2.8-.6.7-1.7.9-2.6,1.3-.3.1-.7,0-1,.1-.2,0-.4.2-.5.3-.6,1.4-2.4,1.2-3.3,2.2.3-1.1.7-1.9,1.8-2v-3.1c-.4.5-.8.8-1.3,1.3-.6-1.2-.1-2.4-.3-3.6-.3.5-.6.9-.8,1.4,0,0-.2,0-.3,0-.5-1.4-1.1-2.9-1.6-4.3,0,0,0,0-.1,0-.4,1.9-.8,3.7-1.3,5.7-.6-.6-1.1-1-1.7-1.5,0,0,0,0-.1,0,.3.8.5,1.6.8,2.4,0,0-.2.1-.3.2-.4-.2-.8-.5-1.3-.8.3.6.4,1,.6,1.4.2.4.3.8.4,1.2.4,1.6,0,2.2-1.8,2.1.2.4.3.8.5,1.1.2.4.5.7.7,1.1.6,1.1.4,1.6-.8,2.1-1.6.7-1.6.6-1.5-1,0-.4,0-.9,0-1.5-.3.4-.6.7-.9,1-.6-.5-.1-1,0-1.4,0-.5.2-.9.2-1.4,0,0-.1,0-.2,0-.4.4-.8.9-1.1,1.3-1.2-.9-1.4-2.2-1.7-3.5-.2.5-.4,1.1-.7,1.9-.7-1.7-1.2-3.2-2.8-4.2-.4,2.7,0,5.2.6,7.8-.4-.1-.8-.2-1.3-.4.2.7.3,1.2.5,1.7.4,1.2.1,1.6-1.1,1.8-.3,0-.6,0-.9.1,0,0,0,.1,0,.2.4.2.7.5,1.1.6.5.2,1.1.3,1.6.5.3.1.9.4.9.7,0,.4-.3.8-.6,1.2,0,.1-.2.2-.6.4.6,0,.9.2,1.3.2.7,0,1.2.5,1.3,1.1.2.7-.2,1.1-.8,1.4-.7.3-1.1.7-.9,1.5,0,0-.1.2-.4.3-.1-.9-.3-1.8-.4-2.6,0,0-.2,0-.2,0-.9.7-1.5.6-1.9-.5-.3-.9-.4-1.9-.6-2.8,0-.3,0-.6-.2-1.1-.4.5-.7.8-1.1,1.1-.9.7-1.9.5-2.2-.5-.3-1-.5-2-.7-3,0-.2,0-.5-.2-1-.3,1-.6,1.8-.8,2.6,0,0-.2,0-.2,0-.7-2.7-2.6-4.5-4.5-6.3,0,0-.2,0-.2.1.6,2.8,1.2,5.7,1.8,8.6-.6-.4-1.1-.7-1.6-1,0,0-.1,0-.2.2.1.3.3.7.4,1,.5,1,1.2,2.1,1.7,3.1.7,1.6.5,2.1-.9,3.1-.1,0-.3.2-.4.3-.2.3-.7.7-.7.8.3.4.7.8,1.1,1.1.2.1.5.1.7.1,1.2.2,1.7,1.2.9,2.2-.6.8-.6.8.3,1.3q1.4.8,2.6-.3c.4-.4.8-.7,1.4-1-.2.3-.5.6-.7,1-.4.7-1,1.3-1.3,2.1-.5,1.5-1.8,2.5-2.8,3.7.2-.6.5-1.2.7-1.7,0,0-.1,0-.2,0-.2-.4-.5-.9-.7-1.3-.5-1.1-.9-2.2-1.5-3.5-.5.8-.9,1.6-1.5,2.4-1.1-1.4-.8-2.9-1-4.4-.2.4-.4.7-.6.9-.7.9-1.5.8-2-.3-.6-1.2-1.2-2.3-1.8-3.5-.1-.2-.3-.5-.5-.7,0,0-.2,0-.3.1v4.1c-.1,0-.2,0-.3,0-.5-.9-.9-1.8-1.5-2.5-.7-.7-1.6-1.2-2.6-1.7-.9-.5-2-.7-3.1-1,.2.3.4.7.7,1,.7.8,1.4,1.5,2,2.3.2.3.4.6.6.9.5,1.2.3,1.4-1,1.4-.4,0-.7,0-1.3,0,.4.4.6.6.9.9,2.2,2,3.1,4.6,3.8,7.4.3,1.2-.3,2-1.4,2.6-.6.3-1.2.6-1.9.9,0,.1,0,.3,0,.4,1.1.3,2.2.7,3.3.8,1.2.1,1.4.3,1.1,1.4-.2.9,0,1.2,1,.9.5-.1,1-.2,1.5-.2,1,0,1.4.6,1.4,1.6,0,.4.1.8.4,1.2.6-.9,1.2-1.9,1.9-2.8,0,1-.8,2.5-1.3,3.2-1,1.3-2,2.7-3,4-.1.2-.2.3-.4.7,0-.3,0-.4,0-.5.7-1,0-1.7-.6-2.4-.7-.6-1.4-1.3-2.1-2-.2.6-.3,1-.5,1.5-.5-.6-.9-1-1.5-1.7-.2.9-.4,1.6-.6,2.5-1.8-1.9-4-2.4-6.5-2.4,1.1,1.7,2.2,3.3,3.3,4.9-1,.2-2,.3-3.1.5.8.5,1.3.8,1.8,1.1.2.1.3.3.5.4,1,.9.9,1.1-.3,1.6,0,0-.1,0-.1,0,.5.6,1.2,1.1,1.6,1.8.5,1.1-.7,1.1-1.4,1.6,1.5,1.2,2.9,2.4,5.2,2.3.4-.8.9-1.7,1.4-2.7,0,1.4,0,1.4-.7,2.4-.5.7-.9,1.5-1.4,2.3-.4.7-.9.8-1.6.3-.2-.2-.4-.5-.6-.7-.2-.3-.3-.5-.5-.9-.5.8-.9,1.6-1.4,2.4-1.2-.4-2.4-.8-3.5-1.2,0,0,0,.1-.1.2.3.8.6,1.7.9,2.5-.9-.2-1.7-.4-2.5-.4-.9,0-1.8.2-2.8.3.3.2.4.4.6.5,1.2.7,2.3,1.4,3.5,2.1.4.3.8.6,1.1.9.6.7.6,1.1-.1,2.1.7.4,1.4.8,2.1,1.2-.9.3-1.7.6-2.5,1,0,0,0,.1,0,.2.6.2,1.1.4,1.7.6-.6.8-1.1,1.5-1.6,2.2,0,0,0,.2.1.2.8,0,1.7,0,2.6-.1.3.4.4.8-.2,1.3-.6.6-.7,1.4-.6,2.2.2,1.1,0,2.1-.4,3.1-.3.5-.3,1.2-.3,1.8,0,.4.2.9.4,1.2.7,1.1.6,1.7-.2,2.7-1.6,1.7-2.2,3.8-2.6,6.1-.5,2.8-.3,5.6,0,8.4,0,.3-.1.8-.4,1-1.1,1.2-1.9,2.5-2.2,4.1,0,.3-.2.6-.4.9-1.7,2.7-4.1,4.7-7.1,5.8-2.4.9-3.1,2.6-3.2,4.8,0,.5,0,1.1,0,1.7.6-.6,1.1-1.1,1.7-1.5.4-.3.8-.5,1.2-.7.9-.3,1.6,0,1.7,1,.1.8.1,1.7.2,2.7.3-.3.5-.6.7-.8.9-.8,1.9-1.6,2.9-2.3.3-.3.8-.4,1.3-.4.7,0,1.2.1,1.3.9,0,.6.2,1.3.4,2.1.2-.2.3-.3.3-.5,1-2.4,3.1-2.8,5.3-2.3.3,0,.6.2.8.3,1.2.5,1.6,1.1,1.5,2.7,1.7-.6,3.2-3.1,2.6-4.7-.2-.7-.8-1.3-1.3-1.8-.5-.5-1.2-.9-1.9-1.4,2.8.6,4.7.9,3.7,4.9,1.1-.2,2.2-.8,3.1.2.7.8,1.2,1.8,1.7,2.7,1.9-1.1,2.8-3.7,2.1-6.2-.3-.8-.7-1.6-1-2.4-.7-1.5-1-3-1.1-4.7,0-1.3.5-2,1.3-2.8,2.2-2.4,3.8-5,4-8.3,0-.8,0-1.6,0-2.3,0-.3,0-.7.3-.9,2.2-2.1,3.1-4.8,3.3-7.8.2-3.9-.7-7.6-2.6-11,0-.1,0-.2-.1-.3,0,0,.2-.1.2-.2.7,1,1.6,1.8,2.2,2.9,2,3.6,2.7,7.4,2.1,11.4-.4,2.1-1.5,3.8-3.5,4.9-.4.2-.5.4-.5.9.1,2-.3,3.8-1.2,5.6-.1.3-.1.7,0,1,3.2,8.3,9.5,13,18.4,14.6.4,0,.8.1,1.4.2-.9-1.4-1.3-2.7-1.1-4.2.1-.9.5-1.9.6-2.8,0-.3,0-.8,0-1.1-1-1.9-1.9-3.8-1.8-6,0-.6.2-1.2.4-1.8.4,3.1,1.2,6.1,3.2,8.6-1.1,1.9-1.5,3.9-.9,6.1.4,1.7,1.4,2.9,3.1,3.5.5.2,1.1.2,1.6.2,2-.3,3.1.1,4,2,.2.4.4.8.5,1.2,0,0,.2,0,.3,0,.2-1.1.5-2.2.6-3.3,0-.6.2-.8.8-.8,3-.3,5.4,1,7.5,3,.4.3.7.7,1.1,1.1,0,0,0,0,.1,0,.8-1.1.8-2.4.6-3.8,3.6,0,6.5,1.3,9,4v-4.8c3.7-.2,6.9-1.6,9.7-3.8,1.9-1.5,3.8-3.3,5.4-5.1,4.4-4.8,8.7-9.7,13.1-14.5,3.2-3.5,6.7-6.5,10.5-9.3.1,0,.2-.2.5-.4-2,0-3.8.1-5.6.8-1.4.6-1.6.3-2-1.1-.2,0-.3.2-.6.3-.2-.3-.4-.6-.6-.9-.2-.3-.5-.5-.8-.9-.2.8-.4,1.5-.6,2.1-.7-.2-1.4-.3-2-.5,0,0-.1.1-.2.2.5.9,1,1.8,1.5,2.8-.5.3-1.1.7-1.6,1-.4.2-1.3-.4-1.5-.9-.1-.5-.2-1-.4-1.6-.3.3-.5.5-.6.7-.4-.5-.7-1-1.1-1.5,0,0-.2,0-.3,0-.2.7-.3,1.4-.5,2.2h-3.3c0,0,0,.2,0,.2.7.6,1.4,1.2,2.1,1.8-.2.1-.4.3-.6.4,0,0,0,.1,0,.1.2,0,.4.2.7.3.7.2.8.8.3,1.2-.6.5-1.2.9-1.9,1.3-.5.3-.6-.3-.7-.6-.1-.6-.1-1.2-.2-1.9-.4.2-.5.4-.7.5-.6-.8-1.2-1.5-1.7-2.3,0,0-.2,0-.3,0-.2.9-.4,1.8-.7,2.7-.5-.4-1-.7-1.5-1,0,0-.1,0-.2.1,0,.6.1,1.3.2,1.9-.9-.2-1.9-.4-2.8-.6,0,0,0,.2-.1.3.6.8,1.1,1.5,1.8,2.4,0,.1-.2.3-.4.6.6.3,1.2.6,1.7.9-1.3.6-2.5,1.1-3.8,1.7-1.7-.3-1.2-1.9-1.4-3.4-.4.3-.8.6-1.2.9-.2-.8-.3-1.4-.5-2.3-.3.5-.5.8-.7,1.2-.9-1.3-1.6-2.3-2.3-3.3-.1,0-.2,0-.3,0-.2,1.4-.4,2.8-.6,4.2-.3-.3-.6-.5-.9-.8v1.5c-.4-.1-.6-.3-1.2-.5.2.7.3,1.2.5,1.7.1.3.3.5.4.8.1.6-.2.9-.8.9-.9,0-1.8,0-2.7,0,.4-.7.7-1.3,1.1-2-.5,0-.8,0-1.1,0,0-.9,0-1.9,0-2.9-1,.5-1.9,1-3,1.5-.1-.6-.2-.9-.3-1.4-.3.3-.6.5-.9.8,0-1-.6-1.8.2-2.8.8-.9.6-2.1,0-3.2-.3-.5-.6-.9-.9-1.4,1.7-.3,1.7-.3,1.1-2-.3-.8-.6-1.6-.3-2.6.2-.7,0-1.4-.6-1.8-.6-.6-1.3-1.1-2-1.6.8-.2.8-.6.3-1.1-.4-.5-.5-1-.4-1.7.3-1.8-.2-3.2-2.1-3.8.9-1.3.8-2-.4-2.9-.6-.5-1.1-1-1.1-1.9,0-1.9-.9-3.6-2.2-5.1-.4-.4-.4-.7-.2-1.2.3-.8.7-1.6.8-2.5.2-1.4-.4-2.8.3-4.1,0,0,0,0,0,0-.6-1.3.2-2.2,1-3.1,1.3-1.4,1.8-3.2,2.1-5.1,0-.2,0-.5.2-.9.7,2,.2,3.5-1.8,6.3,1,1.3,2.2,2.3,3.7,3,.2,0,.4.2.5.3.9,1.6,2.5,2.3,4.2,2.5,1.8.2,3.6.2,5.4.3.4,0,.9.2,1.2.4.6.3,1.2.8,1.7,1.1.7.4,1,1,.9,1.8,0,.7,0,1.2.7,1.6.1,0,.2.5.1.6-.3.6-.7,1.2-1,1.8,1.8-.4,3.6-2.6,3.3-4.1,0-.2-.1-.5-.3-.7-.5-.4-.6-.9-.4-1.4.1-.3.3-.8.5-.8.4,0,.8.2,1.2.3.1,0,.2.2.3.4.7,1,1.4,2,3,1.6-.2,1-.5,1.8-.7,2.8.2,0,.3-.1.4-.2,1.1-1.2,1.9-2.6,1.7-4.3,0-.6-.4-1-.9-1.4-.5-.3-.9-.7-1.3-1-.3-.2-.5-.4-.8-.5-.3-.1-.8-.1-1.1-.3-.3-.2-.6-.6-.5-.9.1-.3.5-.6.9-.7.3,0,.8.2,1.1.3.6.3,1.3.6,1.9.2.8-.5,1.3-.2,1.9.3.1.1.3.2.5.5,0-1.4-.1-2.5-.9-3.5-.5-.6-1.1-.5-1.8-.5-.4,0-.8,0-1-.2-.8-.5-1.5-.5-2.3,0-.3.3-.7.6-1.1.2-.3-.3-.4-.5,0-.9,1.6-1.4,2.1-1.5,4.1-.6.1,0,.2,0,.5.2-.1-.4-.2-.6-.3-.8-.7-1.1-1.7-1.8-2.8-2.4-.9-.4-1.7,0-2.3.6-.5.5-.9,1-1.7,1.2-.4,0-.7.6-.9,1-.5,1.1-1.6,1.5-2.7.9-2-1.2-4.1-1.8-6.6-1.2,0-.3,0-.6,0-.9,0-2.2-.4-4.4-1.6-6.3-.1-.2-.2-.4-.1-.6.3-2.8-.8-5.1-2.6-7.2-.8-.9-1.8-1.6-2.6-2.4-.6-.6-1-1.3-1.4-1.9.3-.2.8-.3,1-.6.2-.3.2-.7.2-1.1,0,0,0,0,0,0,.5-.6.8-1.5,1.4-1.9.6-.4,1-.9,1.1-1.6.9,0,1.4-.4,1.8-1.2.4-1,.4-1.3-.6-1.8-2.6-1.5-4-4.9-3.1-7.3,0-.3.2-.5.5-.7,0,.3-.1.7-.2,1-.3,2.9,1.2,4.9,3.4,6.6.5.4,1.1.7,1.6,1,1.2.6,2.1,1.5,2.6,2.8.3.9.9,1.6,1.7,2,1.6.9,3.1.8,4.4-.5.1-.1.1-.4.1-.6,0-.4,0-.7,0-1.1,0,0,0,0-.2,0-.1-1-.6-1.6-1.2-1.6,0-.2,0-.4.1-.6-.2,0-.3.2-.6.3-.4-1.5-.7-2.9-1-4.4,0-.2.2-.5.2-.7-.2,0-.3.2-.6.3,0-.5,0-.8,0-1.2.1,0,.2,0,.3,0,.1.2.2.4.3.6ZM231.1,191.6c-2.3,2-4.9,2.9-7.9,2.6-3.9-.4-7.2-2.1-10.1-4.5-.2-.2-.5-.4-.8-.6,0,0,.1-.1.2-.2,3.9,2.7,8.2,3.5,12.8,2.1,4.7-1.4,7.3-4.9,9-9.2.5,5.7-.6,11-4.4,15.5,2.4-1.7,3.6-4.2,4.8-6.7,0,.2,0,.5-.1.7-.6,1.2-1.1,2.5-1.8,3.7-1.5,2.4-3.1,4.8-5.7,6.2-.5.3-.9.6-1.2,1-1.4,1.5-3.1,2.8-5,3.6-2.7,1.1-5.3,1.2-7.8-.3-2.9-1.8-4.4-4.6-5.1-7.8,0-.1,0-.2,0-.4,3,6.3,11.6,7.8,17.2,4.1-4.8,2-9.5.3-12.5-2.2-2.6-2.2-4.4-4.9-5.6-8-.3-.7-.5-1.5-.7-2.2.3.2.4.4.5.6,1.9,3.3,4.6,5.9,8.2,7.4,6.7,2.9,12.5.2,15.9-5.3ZM213.5,177.3c6.7,3.4,13.1,3.9,19.4-1-.4.8-.7,1.7-1.2,2.4-1.6,2.6-4,3.8-7,3.7-4.4-.2-8-2.3-11.2-5.2ZM214,184.1c6.6,1.7,12.8.9,18.2-3.8-1.2,3.1-2.9,5.4-6.1,6.4-4.5,1.4-8.4-.3-12.2-2.6ZM213.1,150.1c2.2-1.2,3.9-2.7,4.6-5.1.3-1.1.9-1.8,1.6-2.6,2.2-2.5,4-5.2,2.3-8.9,1.2.9,1.5,2.1,1.4,3.3-.3,2.6-1.5,4.7-3.3,6.6-.3.3-.5.6-.6,1-.7,2.9-2.4,5-5,6.5-.2,0-.3.2-.4.3.2.5.3,1,.5,1.4.3.9.5,1,1.5.8.2,0,.5-.1.7-.2.6-.3,3.5-.3,4.1,0,0,0,.2.1.2.1-.5,0-1,0-1.6,0-.3,0-.6.3-.8.2-.8-.4-1.4.1-2.1.3-.6.1-1.4,0-2-.1-.3,0-.4-.6-.6-1-.7-1.8-1.8-3.4-3.6-4.4-.5-.3-1-.5-1.5-.7,2,0,3.7.6,4.9,2.3ZM241.5,209.8c.7,1.1.2,1.9-.5,2.6,1.7,1.5,2.3,3.5,2.4,5.5.8.3,1.4.5,2.1.8,0,0,0,0,0,.1-.9-.1-1.8-.2-2.7-.4-.5-2.5-1.3-4.8-3.3-6.6,1.3-2.6,2.5-5.1,3.7-7.7,0,0,.1,0,.2,0-.1,1.2-.3,2.4-.4,3.6,0,.9-.4,1.6-1.5,1.9ZM232.8,173.3c-.8,2.1-2,3.6-4.3,3.8-2.8.3-5.3-.9-7.6-2.2,0,0,0,0,0-.1,4,.8,8,1,11.9-1.4ZM227.3,166.3c-.1,0-.2,0-.4.1-.2-.4-.4-.9-.7-1.3-.2-.2-.5-.4-.7-.4-1,0-1.8-.4-2.5-1.1-1.3-1.2-1.9-1.3-3.5-.4.3,0,.5.2.8.3,1.5.5,1.8,1,1.8,2.5,0,.2.1.5.3.8.6,1,1,2,.7,3.2-.2-.6-.3-1.2-.5-1.8-.4-1-1.2-1.8-1.2-2.9,0-.3-.5-.7-.8-1-.4-.3-.9-.4-1.3-.7-.4-.3-.7-.7-1-1.1-.3-.3-.6-.7-1-.9-1.6-.8-2.3-2.2-2.9-3.6.9.8,1.8,1.8,2.9,2.6.7.5,1.6.8,1.8,1.8.3,0,.5,0,.7,0,1.2-.5,2.3,0,3.3.5.2.1.5.3.7.4.9.5,1.7,1,2.9.1.3,1.1.6,2,.8,2.9ZM229.1,128.6c.4,0,.5,0,.6.1,2.2,1.3,4.5,2.5,6.7,3.8.2.1.3.4.5.6-.2.1-.5.4-.7.4-1.8.2-3.5-.3-4.7-1.7-.6-.6-1-1.3-1.5-2-.3-.4-.5-.7-.9-1.3ZM227.6,162c-.5-.4-1-.8-1.5-1.1-.2-.1-.4-.3-.4-.4-.3-.8-1-.9-1.7-1-.7,0-1.4-.2-2-.6-.6-.4-1.2-.6-1.9-.5-2,.2-4.8-1.7-5.5-3.6.8.6,1.5,1.2,2.3,1.8.2.1.6.1.8,0,1-.3,1.9-.7,2.8-1,.1,0,.3,0,.7,0-1.1,1-2.6.5-3.5,1.4.8.7,1.7.7,2.6.6.8,0,1.5,0,2.1.7.5.5,1,.6,1.6.6.5,0,1.2,0,1.6.4.7.7,1.3,1.6,1.9,2.4,0,0,0,.2.1.4ZM233.4,125.5c0,0,.1-.2.2-.2,1.8,1.5,3.6,3,5.4,4.5-2.8.1-4.2-1-5.6-4.3ZM212.8,161.3c0,0,.1,0,.2,0,.6.8,1.2,1.6,1.7,2.4.4.7.7,1.5,1,2.3.1.3,0,.6,0,.9-.3,1.5-2.3,3-4,3,.4-.2.8-.4,1.1-.6,1.9-1,2.4-2.7,1.3-4.5-.6-1.1-.9-2.3-1.4-3.5ZM237.3,131.1c-2,.3-6-2.3-6.1-4,2.1,1.4,4,2.6,6.1,4ZM216.9,167.2c.8.9,1.6,1.9,2.4,2.8.6.7,1.2,1.2,2.2.8,0,1,0,2-.8,3,0-.5,0-.9,0-1.3,0-.3-.2-.6-.4-.8-1.8-1-2.5-2.9-3.4-4.6ZM249.9,123.1c-.6.7-1.3,1.5-2.1,2.4-.4-1.6.5-3.3-1.2-4.4,1.1.7,2.2,1.3,3.3,2ZM251.2,115.9c1.1.8,2.2,1.5,3.2,2.3-.6.2-1.1.3-1.7.3-.6,0-.9-.4-1.1-1-.1-.5-.3-1-.5-1.6ZM236.5,125.2c.9.4,2.6,2.3,2.8,3.3-1.5-.2-2.7-1.6-2.8-3.3ZM240.9,128c-1.2,0-2.5-2.7-1.9-3.9.6,1.3,1.3,2.6,1.9,3.9ZM252.8,132.3c-.4-.3-1-.6-.3-1.3v.6c.2-.2.3-.3.3-.5.5.4.6.7,0,1.1ZM259.5,122.4c-.4-.4-.9-.8-1.3-1.2.8-.1,1.2.2,1.3,1.2Z"/>
  <g>
    <polygon class="cls-5" points="13 217.2 579.9 217.2 579.9 255.7 13 255.7 13 217.2"/>
    <polygon class="cls-5" points="25.6 104.7 47.7 121.4 63.9 121.4 63.9 218.8 25.6 218.8 25.6 104.7"/>
    <polygon class="cls-5" points="46.7 121.1 64.3 121.1 64.3 124.2 46.7 124.2 46.7 121.1"/>
    <polygon class="cls-5" points="70.2 161.9 129.9 161.9 129.9 210.6 70.2 210.6 70.2 161.9"/>
    <polygon class="cls-5" points="73 160.1 98.7 160.1 98.7 167.9 73 167.9 73 160.1"/>
    <polygon class="cls-5" points="72.4 160.1 99.2 160.1 99.2 160.8 72.4 160.8 72.4 160.1"/>
    <polygon class="cls-5" points="78.8 157.5 92.3 157.5 92.3 162 78.8 162 78.8 157.5"/>
    <polygon class="cls-5" points="78.4 157 92.7 157 92.7 157.8 78.4 157.8 78.4 157"/>
    <polygon class="cls-5" points="82.7 155.9 85.5 155.9 85.5 157.3 82.7 157.3 82.7 155.9"/>
    <polygon class="cls-5" points="85 155.8 84.1 155.8 84.1 156.1 85 156.1 85 155.8"/>
    <polygon class="cls-5" points="86.3 156.1 90.3 156.1 90.3 157.4 86.3 157.4 86.3 156.1"/>
    <polygon class="cls-5" points="121.1 157.3 129.9 157.3 129.9 210.6 121.1 210.6 121.1 157.3"/>
    <polygon class="cls-5" points="120.4 160.1 130.6 160.1 130.6 161.2 120.4 161.2 120.4 160.1"/>
    <polygon class="cls-5" points="69.2 161.6 74.3 161.6 74.3 162.6 69.2 162.6 69.2 161.6"/>
    <polygon class="cls-5" points="69.2 169.2 74.3 169.2 74.3 170.1 69.2 170.1 69.2 169.2"/>
    <polygon class="cls-5" points="69.8 172 70.5 172 70.5 172.6 69.8 172.6 69.8 172"/>
    <polygon class="cls-5" points="69.8 174.4 70.5 174.4 70.5 175 69.8 175 69.8 174.4"/>
    <polygon class="cls-5" points="69.8 176.8 70.5 176.8 70.5 177.4 69.8 177.4 69.8 176.8"/>
    <polygon class="cls-5" points="69.8 179.3 70.5 179.3 70.5 179.9 69.8 179.9 69.8 179.3"/>
    <polygon class="cls-5" points="69.8 181.7 70.5 181.7 70.5 182.3 69.8 182.3 69.8 181.7"/>
    <polygon class="cls-5" points="69.8 184.1 70.5 184.1 70.5 184.7 69.8 184.7 69.8 184.1"/>
    <polygon class="cls-5" points="69.8 186.5 70.5 186.5 70.5 187.1 69.8 187.1 69.8 186.5"/>
    <polygon class="cls-5" points="69.8 188.9 70.5 188.9 70.5 189.5 69.8 189.5 69.8 188.9"/>
    <polygon class="cls-5" points="69.8 191.3 70.5 191.3 70.5 191.9 69.8 191.9 69.8 191.3"/>
    <polygon class="cls-5" points="69.8 193.7 70.5 193.7 70.5 194.3 69.8 194.3 69.8 193.7"/>
    <polygon class="cls-5" points="69.8 196.1 70.5 196.1 70.5 196.7 69.8 196.7 69.8 196.1"/>
    <polygon class="cls-5" points="69.8 198.5 70.5 198.5 70.5 199.1 69.8 199.1 69.8 198.5"/>
    <polygon class="cls-5" points="69.8 200.9 70.5 200.9 70.5 201.5 69.8 201.5 69.8 200.9"/>
    <polygon class="cls-5" points="69.8 203.3 70.5 203.3 70.5 203.9 69.8 203.9 69.8 203.3"/>
    <polygon class="cls-5" points="69.8 205.7 70.5 205.7 70.5 206.3 69.8 206.3 69.8 205.7"/>
    <polygon class="cls-5" points="69.8 208.1 70.5 208.1 70.5 208.7 69.8 208.7 69.8 208.1"/>
    <polygon class="cls-5" points="69.8 164.3 70.5 164.3 70.5 164.9 69.8 164.9 69.8 164.3"/>
    <polygon class="cls-5" points="69.8 166.7 70.5 166.7 70.5 167.3 69.8 167.3 69.8 166.7"/>
    <polygon class="cls-5" points="415.5 92.2 481.4 92.2 481.4 217.9 415.5 217.9 415.5 92.2"/>
    <polygon class="cls-5" points="416.1 88.1 480.8 88.1 480.8 94.4 416.1 94.4 416.1 88.1"/>
    <polygon class="cls-5" points="423.4 82.9 423.8 82.9 423.8 90.5 423.4 90.5 423.4 82.9"/>
    <polygon class="cls-5" points="446.3 84.5 446.7 84.5 446.7 92.1 446.3 92.1 446.3 84.5"/>
    <polygon class="cls-5" points="451.9 83.5 452.2 83.5 452.2 91.1 451.9 91.1 451.9 83.5"/>
    <polygon class="cls-5" points="461.2 84.5 461.6 84.5 461.6 92.1 461.2 92.1 461.2 84.5"/>
    <polygon class="cls-5" points="474.4 83.2 474.7 83.2 474.7 90.8 474.4 90.8 474.4 83.2"/>
    <polygon class="cls-5" points="431.5 82.5 432.2 82.5 432.2 90.1 431.5 90.1 431.5 82.5"/>
    <polygon class="cls-5" points="436.9 82 437.6 82 437.6 89.7 436.9 89.7 436.9 82"/>
    <polygon class="cls-5" points="432.8 85.5 437.2 85.5 437.2 86.1 432.8 86.1 432.8 85.5"/>
    <polygon class="cls-5" points="431.6 84.8 433.4 84.8 433.4 86.9 431.6 86.9 431.6 84.8"/>
    <polygon class="cls-5" points="435.1 85.9 435.6 85.9 435.6 88.9 435.1 88.9 435.1 85.9"/>
    <polygon class="cls-5" points="431.9 83.1 433.2 83.1 433.2 83.4 431.9 83.4 431.9 83.1"/>
    <polygon class="cls-5" points="431.9 83.9 433.2 83.9 433.2 84.2 431.9 84.2 431.9 83.9"/>
    <polygon class="cls-5" points="435.9 84 439 84 439 84.2 435.9 84.2 435.9 84"/>
    <polygon class="cls-5" points="435.9 82.9 439 82.9 439 83.2 435.9 83.2 435.9 82.9"/>
    <polygon class="cls-5" points="427.7 87.4 433.9 87.4 433.9 89.5 427.7 89.5 427.7 87.4"/>
    <polygon class="cls-5" points="441.6 87.2 450.3 87.2 450.3 89.5 441.6 89.5 441.6 87.2"/>
    <polygon class="cls-5" points="452.2 87.2 454.8 87.2 454.8 88.6 452.2 88.6 452.2 87.2"/>
    <polygon class="cls-5" points="457.2 87.7 459.6 87.7 459.6 88.8 457.2 88.8 457.2 87.7"/>
    <polygon class="cls-5" points="463.1 87.7 472.2 87.7 472.2 89.2 463.1 89.2 463.1 87.7"/>
    <polygon class="cls-5" points="468.4 87.3 471.2 87.3 471.2 88.3 468.4 88.3 468.4 87.3"/>
    <polygon class="cls-5" points="266.5 98.5 323.9 100.2 320.4 220.8 263 219.1 266.5 98.5"/>
    <polygon class="cls-5" points="267.3 98.3 291 80.1 291.7 80.1 292.6 85.5 293.4 85.5 293.5 85.5 294.3 85.5 295.1 80.1 295.9 80.1 319.6 98.3 319.6 102.7 267.3 102.7 267.3 98.3"/>
    <polygon class="cls-5" points="399 138.2 401.8 144.4 404.7 150.6 399 150.6 393.4 150.6 396.2 144.4 399 138.2"/>
    <polygon class="cls-5" points="392.5 158.4 405.7 158.4 405.7 203.7 392.5 203.7 392.5 158.4"/>
    <polygon class="cls-5" points="392.1 160.2 406.1 160.2 406.1 161.3 392.1 161.3 392.1 160.2"/>
    <polygon class="cls-5" points="392.1 165 406.1 165 406.1 166 392.1 166 392.1 165"/>
    <polygon class="cls-5" points="392.1 167.3 406.1 167.3 406.1 168.4 392.1 168.4 392.1 167.3"/>
    <polygon class="cls-5" points="393.7 150.5 404.5 150.5 404.5 151.5 393.7 151.5 393.7 150.5"/>
    <polygon class="cls-5" points="393.5 151.4 404.7 151.4 404.7 159.5 393.5 159.5 393.5 151.4"/>
    <polygon class="cls-5" points="392.8 156.4 394.4 154.4 394.4 159.2 392.8 159.2 392.8 156.4"/>
    <polygon class="cls-5" points="405.3 156.4 403.7 154.4 403.7 159.2 405.3 159.2 405.3 156.4"/>
    <polygon class="cls-5" points="370.5 193.7 418.4 193.7 418.4 220.8 370.5 220.8 370.5 193.7"/>
    <polygon class="cls-5" points="369.5 194.3 404.6 194.3 404.6 182.9 375.4 182.9 369.5 194.3"/>
    <polygon class="cls-5" points="385.7 177.9 388.5 184.1 391.4 190.3 385.7 190.3 380 190.3 382.9 184.1 385.7 177.9"/>
    <polygon class="cls-5" points="374.6 181.8 380.3 181.8 380.3 187.3 374.6 187.3 374.6 181.8"/>
    <polygon class="cls-5" points="375.3 180.3 379.6 180.3 379.6 185.8 375.3 185.8 375.3 180.3"/>
    <polygon class="cls-5" points="374.3 181.5 380.6 181.5 380.6 182.1 374.3 182.1 374.3 181.5"/>
    <polygon class="cls-5" points="369.9 198.4 383.9 198.4 383.9 199.5 369.9 199.5 369.9 198.4"/>
    <polygon class="cls-5" points="369.9 201.9 383.9 201.9 383.9 202.9 369.9 202.9 369.9 201.9"/>
    <polygon class="cls-5" points="370 193.7 384 193.7 384 194.8 370 194.8 370 193.7"/>
    <polygon class="cls-5" points="327.1 148.2 384.9 148.2 384.9 213.5 327.1 213.5 327.1 148.2"/>
    <polygon class="cls-5" points="326.3 150.7 385.6 150.7 385.6 220 326.3 220 326.3 150.7"/>
    <polygon class="cls-5" points="347.5 143.9 351 143.9 351 149.7 347.5 149.7 347.5 143.9"/>
    <polygon class="cls-5" points="358.9 145.5 374 145.5 374 148.8 358.9 148.8 358.9 145.5"/>
    <polygon class="cls-5" points="371.2 143.7 374.3 143.7 374.3 149.5 371.2 149.5 371.2 143.7"/>
    <polygon class="cls-5" points="359.8 144.5 363.6 144.5 363.6 147 359.8 147 359.8 144.5"/>
    <polygon class="cls-5" points="378.4 147.5 381.6 147.5 381.6 148.9 378.4 148.9 378.4 147.5"/>
    <polygon class="cls-5" points="379.5 146.9 382.3 146.9 382.3 148.6 379.5 148.6 379.5 146.9"/>
    <polygon class="cls-5" points="352.3 138.5 352.8 138.5 352.8 150.4 352.3 150.4 352.3 138.5"/>
    <polygon class="cls-5" points="364.5 138.7 365 138.7 365 146.8 364.5 146.8 364.5 138.7"/>
    <polygon class="cls-5" points="366.7 140.8 367.1 140.8 367.1 149 366.7 149 366.7 140.8"/>
    <polygon class="cls-5" points="369.6 142.1 370 142.1 370 150.2 369.6 150.2 369.6 142.1"/>
    <polygon class="cls-5" points="366.3 144.4 368.6 144.4 368.6 146.2 366.3 146.2 366.3 144.4"/>
    <polygon class="cls-5" points="368.1 143.6 367.4 143.6 367.4 144.5 368.1 144.5 368.1 143.6"/>
    <polygon class="cls-5" points="333.9 147.1 343.8 147.1 343.8 149.6 333.9 149.6 333.9 147.1"/>
    <polygon class="cls-5" points="342.1 146.7 339.8 146.7 339.8 147.6 342.1 147.6 342.1 146.7"/>
    <polygon class="cls-5" points="337.6 146.7 335.2 146.7 335.2 147.6 337.6 147.6 337.6 146.7"/>
    <polygon class="cls-5" points="331.1 147.8 333 147.8 333 148.8 331.1 148.8 331.1 147.8"/>
    <polygon class="cls-5" points="184.7 167.6 230.3 167.6 230.3 228.8 184.7 228.8 184.7 167.6"/>
    <polygon class="cls-5" points="231.4 165.6 183.6 165.6 183.6 168.5 231.4 168.5 231.4 165.6"/>
    <polygon class="cls-5" points="199.4 157.5 215.6 157.5 215.6 166.5 199.4 166.5 199.4 157.5"/>
    <path class="cls-5" d="M196,160.1c1.6,0,2.9,1,2.9,2.3s-1.3,2.3-2.9,2.3-2.9-1-2.9-2.3c0-1.3,1.3-2.3,2.9-2.3h0Z"/>
    <path class="cls-5" d="M216.4,162.2c1.7,0,3.1.6,3.1,1.4s-1.4,1.4-3.1,1.4-3.1-.6-3.1-1.4c0-.8,1.4-1.4,3.1-1.4h0Z"/>
    <path class="cls-5" d="M219.6,162.1c-.3.2-.3,1.2.1,2.3s1,1.9,1.3,1.7c.3-.2.2-1.2-.1-2.3-.4-1.1-1-1.9-1.3-1.7h0Z"/>
    <polygon class="cls-5" points="194.5 163 195 163 195 166.6 194.5 166.6 194.5 163"/>
    <polygon class="cls-5" points="196 164.3 196.3 164.3 196.3 166.4 196 166.4 196 164.3"/>
    <polygon class="cls-5" points="197.8 163.7 200.3 163.7 200.3 164.9 197.8 164.9 197.8 163.7"/>
    <polygon class="cls-5" points="197.2 163.8 198.3 163.8 198.3 166.3 197.2 166.3 197.2 163.8"/>
    <polygon class="cls-5" points="216.6 163.5 217 163.5 217 166.7 216.6 166.7 216.6 163.5"/>
    <polygon class="cls-5" points="217.7 163.6 217.9 163.6 217.9 166.2 217.7 166.2 217.7 163.6"/>
    <polygon class="cls-5" points="222.2 164.9 219.1 164.9 219.1 166.8 222.2 166.8 222.2 164.9"/>
    <polygon class="cls-5" points="214 152.9 213.4 152.9 213.4 159.2 214 159.2 214 152.9"/>
    <polygon class="cls-5" points="208.5 156.9 210.8 156.9 210.8 158.3 208.5 158.3 208.5 156.9"/>
    <polygon class="cls-5" points="208.9 156.3 209.9 156.3 209.9 157.1 208.9 157.1 208.9 156.3"/>
    <polygon class="cls-5" points="201.2 154.1 201.6 154.1 201.6 159.2 201.2 159.2 201.2 154.1"/>
    <polygon class="cls-5" points="203.4 156.4 203.8 156.4 203.8 161.4 203.4 161.4 203.4 156.4"/>
    <polygon class="cls-5" points="206.5 154 206.9 154 206.9 159 206.5 159 206.5 154"/>
    <path class="cls-5" d="M551.7,150.5c.2.4.5.7.9,1,.3-.3.5-.6.6-1,.3.3.7.4,1,.5.2-.4.3-.9.3-1.3.3,0,.6,0,.9,0,0-.4,0-.9,0-1.3.3,0,.7,0,1-.2,0-.4-.1-.8-.3-1.2.4-.1.7-.3.9-.5,0-.4-.3-.7-.5-1,.4-.2.7-.5.8-.8-.2-.3-.4-.6-.7-.8.3-.3.4-.6.5-1-.3-.2-.6-.4-.9-.5.2-.4.2-.7.3-1.1-.3-.2-.7-.2-1-.2,0-.4,0-.9,0-1.3-.3,0-.6,0-.9.2,0-.4-.1-.9-.3-1.3-.3,0-.5.3-.7.5,0-.4-.1-.8-.3-1.2-.3.4-.5.8-.7,1.2l-.3,3.4-1.5.9v.2s-.8.5-.8.5l.2.2-.8.7.2.4-1.1,1-2.1-1.2,1.4-3.3s-1.2-.4-1.2-1c0-.6.3-1.1.3-1.1l-.4-.2-1.3,1.6,1.6.8-2.2,3.2s1.9,1.9,2.1,3.4c.3,1.5.2,2.1-.3,3.4-.5,1.3-1.2,3.6-1.3,4.9-.1,1.3,0,2.6,0,2.6l1.1.3s1.6,4.2,1.7,5.7c.2,1.5-.3,5.5-1.2,6.6-.8,1-1.5,1.6-2.6,2.4-1.1.9,7,0,7,0,0,0,0-3,.1-4.2.1-1.2.3-4.5,0-6.4-.4-1.9-1.1-4.5-1.1-4.5l1.9.6s-.9-1.8-1.4-3.3c-.5-1.5-.5-4.1.1-5.5.7-1.4,1.1-2.3,1.1-2.3v1.6h0Z"/>
    <path class="cls-5" d="M557.2,205.9s-1.4-6.8-.9-9.6c.4-2.8,2.2-5.9,2.2-5.9,0,0,3.4-.1,4.1-2,.6-1.9,1.8-2.4,1.5-4.1-.3-1.7-.4-2-.4-2.5s-.1-1.6-.9-1.7c-.8-.1-2,.1-2-.6s.5-2.4-.7-3.4c-1.2-1-1.5-2.3-2.5-2.1-1,.2-1.6-.2-2.9.2-1.4.4-2.4-.2-2.4-.2,0,0-2.4.1-3.7.2-1.4.1-7.1-.9-7.9-.2-.8.7-1,2.5-1,2.5,0,0-1.2.4-3,.3-1.8-.1-4,.1-4,1.9s.1,4.5.2,5c.1.5.3,1.5,2.3,2.8,2,1.4,2.2,1.5,2.4,4.3.2,2.8.1,4.3-.2,5.4-.3,1.1-.3,2.6-.4,4.5-.1,1.9-.9,5.8-.9,5.8l21.2.5.2-1.1h0Z"/>
    <polygon class="cls-5" points="577.9 205.9 516.2 205.9 516.2 211 577.9 211 577.9 205.9"/>
    <path class="cls-2" d="M487.4,209.9c-.4-4.1-.6-8.4-.6-12.7s0-3.3,0-4.9l2.5,1c0,1.7,0,3.5,0,5.2,0,4.3.2,8.4.5,12.4l-2.4-1h0Z"/>
    <polygon class="cls-2" points="501.7 204.7 497 205.9 488.3 204.7 488.3 211 501.7 211 501.7 204.7"/>
    <path class="cls-2" d="M489.3,207.4c-1-6.4-1.6-13.2-1.6-20.3,0-12.9,1.9-25.1,5.1-35.4,5.1,11.9,8.1,27.2,8.1,43.8s-.2,8-.5,11.8h-2.8c.3-3.9.5-7.9.5-12.1,0-13.6-1.8-26-4.9-35.7-1.9,8.4-3.1,18.3-3.1,28.8s.4,13,1.3,18.9h-2.1Z"/>
    <polygon class="cls-2" points="473.3 202.3 537.7 202.3 537.7 204 473.3 204 473.3 202.3"/>
    <polygon class="cls-2" points="473.3 199.7 537.7 199.7 537.7 200.1 473.3 200.1 473.3 199.7"/>
    <path class="cls-4" d="M474.6,199.7h0c.1,0,.2,0,.3.1,0,0,.2.2.2.3.3.5.6,1.5.7,2.9v.3s-.3,0-.3,0h-2.4v-.3s0,0,0,0h0s0,0,0,0h0c0-.3,0-.5.1-.7h0c0-.2,0-.5.1-.7.2-1.2.6-1.9,1.1-1.9h0ZM474.6,200.2h0c-.2,0-.4.5-.5,1.4,0,.2,0,.4-.1.6h0c0,.1,0,.3,0,.4h1.4c-.2-1.1-.4-2-.6-2.4,0,0,0-.1-.1-.1,0,0,0,0,0,0h0ZM473.3,203h0ZM473.3,203h0ZM473.3,203h0ZM473.3,203h0s0,0,0,0h0ZM473.3,203h0ZM473.3,203h0s0,0,0,0h0ZM473.3,203h0ZM473.9,203s0,0,0,0h0ZM473.9,203s0,0,0,0h0Z"/>
    <path class="cls-4" d="M477.3,199.7h0c.1,0,.2,0,.3.1,0,0,.2.2.2.3.3.5.6,1.5.7,2.9v.3s-.3,0-.3,0h-2.4v-.3s0,0,0,0h0s0,0,0,0h0c0-.3,0-.5.1-.7h0c0-.2,0-.5.1-.7.2-1.2.6-1.9,1.1-1.9h0ZM477.3,200.2h0c-.2,0-.4.5-.5,1.4,0,.2,0,.4-.1.6h0c0,.1,0,.3,0,.4h1.4c-.2-1.1-.4-2-.6-2.4,0,0,0-.1-.1-.1,0,0,0,0,0,0h0ZM476,203h0ZM476,203h0ZM476,203h0ZM476,203h0s0,0,0,0h0ZM476,203h0ZM476,203h0s0,0,0,0h0ZM476,203h0ZM476.5,203s0,0,0,0h0ZM476.5,203s0,0,0,0h0Z"/>
    <path class="cls-4" d="M480,199.7h0c.1,0,.2,0,.3.1,0,0,.2.2.2.3.3.5.6,1.5.7,2.9v.3s-.3,0-.3,0h-2.4v-.3s0,0,0,0h0s0,0,0,0h0c0-.3,0-.5.1-.7h0c0-.2,0-.5.1-.7.2-1.2.6-1.9,1.1-1.9h0ZM480,200.2h0c-.2,0-.4.5-.5,1.4,0,.2,0,.4-.1.6h0c0,.1,0,.3,0,.4h1.4c-.2-1.1-.4-2-.6-2.4,0,0,0-.1-.1-.1,0,0,0,0,0,0h0ZM478.7,203h0ZM478.7,203h0ZM478.7,203h0ZM478.7,203h0s0,0,0,0h0ZM478.7,203h0ZM478.7,203h0s0,0,0,0h0ZM478.7,203h0ZM479.2,203s0,0,0,0h0ZM479.2,203s0,0,0,0h0Z"/>
    <path class="cls-4" d="M482.6,199.7h0c.1,0,.2,0,.3.1,0,0,.2.2.2.3.3.5.6,1.5.7,2.9v.3s-.3,0-.3,0h-2.4v-.3s0,0,0,0h0s0,0,0,0h0s0,0,0,0h0c0-.3,0-.5.1-.7h0c0-.2,0-.5.1-.7.2-1.2.6-1.9,1.1-1.9h0ZM482.6,200.2h0c-.2,0-.4.5-.5,1.4,0,.2,0,.4-.1.6h0c0,.1,0,.3,0,.4h1.4c-.2-1.1-.4-2-.6-2.4,0,0,0-.1-.1-.1,0,0,0,0,0,0h0ZM481.3,203h0ZM481.3,203h0ZM481.3,203h0ZM481.3,203h0s0,0,0,0h0ZM481.3,203h0ZM481.3,203h0s0,0,0,0h0ZM481.3,203h0ZM481.9,203s0,0,0,0h0ZM481.9,203s0,0,0,0h0Z"/>
    <path class="cls-4" d="M485.3,199.7h0c.1,0,.2,0,.3.1,0,0,.2.2.2.3.3.5.6,1.5.7,2.9v.3s-.3,0-.3,0h-2.4v-.3s0,0,0,0h0s0,0,0,0h0c0-.3,0-.5.1-.7h0c0-.2,0-.5.1-.7.2-1.2.6-1.9,1.1-1.9h0ZM485.3,200.2h0c-.2,0-.4.5-.5,1.4,0,.2,0,.4-.1.6h0c0,.1,0,.3,0,.4h1.4c-.2-1.1-.4-2-.6-2.4,0,0,0-.1-.1-.1,0,0,0,0,0,0h0ZM484,203h0ZM484,203h0ZM484,203h0ZM484,203h0s0,0,0,0h0ZM484,203h0ZM484,203h0s0,0,0,0h0ZM484,203h0ZM484.5,203s0,0,0,0h0ZM484.5,203s0,0,0,0h0Z"/>
    <path class="cls-4" d="M488,199.7h0c.1,0,.2,0,.3.1,0,0,.2.2.2.3.3.5.6,1.5.7,2.9v.3s-.3,0-.3,0h-2.4v-.3s0,0,0,0h0s0,0,0,0h0c0-.3,0-.5.1-.7h0c0-.2,0-.5.1-.7.2-1.2.6-1.9,1.1-1.9h0ZM488,200.2h0c-.2,0-.4.5-.5,1.4,0,.2,0,.4-.1.6h0c0,.1,0,.3,0,.4h1.4c-.2-1.1-.4-2-.6-2.4,0,0,0-.1-.1-.1,0,0,0,0,0,0h0ZM486.7,203h0ZM486.7,203h0ZM486.7,203h0ZM486.7,203h0s0,0,0,0h0ZM486.7,203h0ZM486.7,203h0s0,0,0,0h0ZM486.7,203h0ZM487.2,203s0,0,0,0h0ZM487.2,203s0,0,0,0h0Z"/>
    <path class="cls-4" d="M490.6,199.7h0c.1,0,.2,0,.3.1,0,0,.2.2.2.3.3.5.6,1.5.7,2.9v.3s-.3,0-.3,0h-2.4v-.3s0,0,0,0h0s0,0,0,0h0c0-.3,0-.5.1-.7h0c0-.2,0-.5.1-.7.2-1.2.6-1.9,1.1-1.9h0ZM490.6,200.2h0c-.2,0-.4.5-.5,1.4,0,.2,0,.4-.1.6h0c0,.1,0,.3,0,.4h1.4c-.2-1.1-.4-2-.6-2.4,0,0,0-.1-.1-.1,0,0,0,0,0,0h0ZM489.3,203h0ZM489.3,203h0,0ZM489.3,203h0ZM489.3,203h0s0,0,0,0h0ZM489.3,203h0ZM489.3,203h0s0,0,0,0h0ZM489.3,203h0ZM489.9,203s0,0,0,0h0ZM489.9,203s0,0,0,0h0Z"/>
    <path class="cls-4" d="M493.3,199.7h0c.1,0,.2,0,.3.1,0,0,.2.2.2.3.3.5.6,1.5.7,2.9v.3s-.3,0-.3,0h-2.4v-.3s0,0,0,0h0s0,0,0,0h0c0-.3,0-.5.1-.7h0c0-.2,0-.5.1-.7.2-1.2.6-1.9,1.1-1.9h0ZM493.3,200.2h0c-.2,0-.4.5-.5,1.4,0,.2,0,.4-.1.6h0c0,.1,0,.3,0,.4h1.4c-.2-1.1-.4-2-.6-2.4,0,0,0-.1-.1-.1,0,0,0,0,0,0h0ZM492,203h0ZM492,203h0ZM492,203h0ZM492,203h0s0,0,0,0h0ZM492,203h0ZM492,203h0s0,0,0,0h0ZM492,203h0ZM492.6,203s0,0,0,0h0ZM492.6,203s0,0,0,0h0Z"/>
    <path class="cls-4" d="M496,199.7h0c.1,0,.2,0,.3.1,0,0,.2.2.2.3.3.5.6,1.5.7,2.9v.3s-.3,0-.3,0h-2.4v-.3s0,0,0,0h0s0,0,0,0h0c0-.3,0-.5.1-.7h0c0-.2,0-.5.1-.7.2-1.2.6-1.9,1.1-1.9h0ZM496,200.2h0c-.2,0-.4.5-.5,1.4,0,.2,0,.4-.1.6h0c0,.1,0,.3,0,.4h1.4c-.2-1.1-.4-2-.6-2.4,0,0,0-.1-.1-.1,0,0,0,0,0,0h0ZM494.7,203h0ZM494.7,203h0s0,0,0,0h0ZM494.7,203h0ZM494.7,203h0s0,0,0,0h0ZM494.7,203h0ZM494.7,203h0s0,0,0,0h0ZM494.7,203h0ZM495.2,203s0,0,0,0h0ZM495.2,203s0,0,0,0h0Z"/>
    <path class="cls-4" d="M498.7,199.7h0c.1,0,.2,0,.3.1,0,0,.2.2.2.3.3.5.6,1.5.7,2.9v.3s-.3,0-.3,0h-2.4v-.3s0,0,0,0h0s0,0,0,0h0c0-.3,0-.5.1-.7h0c0-.2,0-.5.1-.7.2-1.2.6-1.9,1.1-1.9h0ZM498.7,200.2h0c-.2,0-.4.5-.5,1.4,0,.2,0,.4-.1.6h0c0,.1,0,.3,0,.4h1.4c-.2-1.1-.4-2-.6-2.4,0,0,0-.1-.1-.1,0,0,0,0,0,0h0ZM497.4,203h0ZM497.4,203h0ZM497.4,203h0ZM497.4,203h0s0,0,0,0h0ZM497.4,203h0ZM497.4,203h0s0,0,0,0h0ZM497.4,203h0ZM497.9,203s0,0,0,0h0ZM497.9,203s0,0,0,0h0Z"/>
    <path class="cls-4" d="M501.3,199.7h0c.1,0,.2,0,.3.1,0,0,.2.2.2.3.3.5.6,1.5.7,2.9v.3s-.3,0-.3,0h-2.4v-.3s0,0,0,0h0s0,0,0,0h0c0-.3,0-.5.1-.7h0c0-.2,0-.5.1-.7.2-1.2.6-1.9,1.1-1.9h0ZM501.3,200.2h0c-.2,0-.4.5-.5,1.4,0,.2,0,.4-.1.6h0c0,.1,0,.3,0,.4h1.4c-.2-1.1-.4-2-.6-2.4,0,0,0-.1-.1-.1,0,0,0,0,0,0h0ZM500,203h0ZM500,203h0ZM500,203h0,0ZM500,203h0s0,0,0,0h0ZM500,203h0ZM500,203h0s0,0,0,0h0ZM500,203h0ZM500.6,203s0,0,0,0h0ZM500.6,203s0,0,0,0h0Z"/>
    <path class="cls-4" d="M504,199.7h0c.1,0,.2,0,.3.1,0,0,.2.2.2.3.3.5.6,1.5.7,2.9v.3s-.3,0-.3,0h-2.4v-.3s0,0,0,0h0s0,0,0,0h0c0-.3,0-.5.1-.7h0c0-.2,0-.5.1-.7.2-1.2.6-1.9,1.1-1.9h0ZM504,200.2h0c-.2,0-.4.5-.5,1.4,0,.2,0,.4-.1.6h0c0,.1,0,.3,0,.4h1.4c-.2-1.1-.4-2-.6-2.4,0,0,0-.1-.1-.1,0,0,0,0,0,0h0ZM502.7,203h0ZM502.7,203h0ZM502.7,203h0ZM502.7,203h0s0,0,0,0h0ZM502.7,203h0ZM502.7,203h0s0,0,0,0h0ZM502.7,203h0ZM503.2,203s0,0,0,0h0ZM503.2,203s0,0,0,0h0Z"/>
    <path class="cls-4" d="M506.7,199.7h0c.1,0,.2,0,.3.1,0,0,.2.2.2.3.3.5.6,1.5.7,2.9v.3s-.3,0-.3,0h-2.4v-.3s0,0,0,0h0s0,0,0,0h0c0-.3,0-.5.1-.7h0c0-.2,0-.5.1-.7.2-1.2.6-1.9,1.1-1.9h0ZM506.7,200.2h0c-.2,0-.4.5-.5,1.4,0,.2,0,.4-.1.6h0c0,.1,0,.3,0,.4h1.4c-.2-1.1-.4-2-.6-2.4,0,0,0-.1-.1-.1,0,0,0,0,0,0h0ZM505.4,203h0ZM505.4,203h0ZM505.4,203h0ZM505.4,203h0s0,0,0,0h0ZM505.4,203h0ZM505.4,203h0s0,0,0,0h0ZM505.4,203h0ZM505.9,203s0,0,0,0h0ZM505.9,203s0,0,0,0h0Z"/>
    <path class="cls-4" d="M509.3,199.7h0c.1,0,.2,0,.3.1,0,0,.2.2.2.3.3.5.6,1.5.7,2.9v.3s-.3,0-.3,0h-2.4v-.3s0,0,0,0h0s0,0,0,0h0c0-.3,0-.5.1-.7h0c0-.2,0-.5.1-.7.2-1.2.6-1.9,1.1-1.9h0ZM509.3,200.2h0c-.2,0-.4.5-.5,1.4,0,.2,0,.4-.1.6h0c0,.1,0,.3,0,.4h1.4c-.2-1.1-.4-2-.6-2.4,0,0,0-.1-.1-.1,0,0,0,0,0,0h0ZM508,203h0ZM508,203h0ZM508,203h0ZM508,203h0s0,0,0,0h0ZM508,203h0ZM508,203h0s0,0,0,0h0ZM508,203h0ZM508.6,203s0,0,0,0h0ZM508.6,203s0,0,0,0h0Z"/>
    <path class="cls-4" d="M512,199.7h0c.1,0,.2,0,.3.1,0,0,.2.2.2.3.3.5.6,1.5.7,2.9v.3s-.3,0-.3,0h-2.4v-.3s0,0,0,0h0s0,0,0,0h0c0-.3,0-.5.1-.7h0c0-.2,0-.5.1-.7.2-1.2.6-1.9,1.1-1.9h0ZM512,200.2h0c-.2,0-.4.5-.5,1.4,0,.2,0,.4-.1.6h0c0,.1,0,.3,0,.4h1.4c-.2-1.1-.4-2-.6-2.4,0,0,0-.1-.1-.1,0,0,0,0,0,0h0ZM510.7,203h0ZM510.7,203h0ZM510.7,203h0ZM510.7,203h0s0,0,0,0h0ZM510.7,203h0ZM510.7,203h0s0,0,0,0h0ZM510.7,203h0ZM511.2,203s0,0,0,0h0ZM511.2,203s0,0,0,0h0Z"/>
    <path class="cls-4" d="M514.7,199.7h0c.1,0,.2,0,.3.1,0,0,.2.2.2.3.3.5.6,1.5.7,2.9v.3s-.3,0-.3,0h-2.4v-.3s0,0,0,0h0s0,0,0,0h0c0-.3,0-.5.1-.7h0c0-.2,0-.5.1-.7.2-1.2.6-1.9,1.1-1.9h0ZM514.7,200.2h0c-.2,0-.4.5-.5,1.4,0,.2,0,.4-.1.6h0c0,.1,0,.3,0,.4h1.4c-.2-1.1-.4-2-.6-2.4,0,0,0-.1-.1-.1,0,0,0,0,0,0h0ZM513.4,203h0ZM513.4,203h0ZM513.4,203h0ZM513.4,203h0s0,0,0,0h0ZM513.4,203h0ZM513.4,203h0s0,0,0,0h0ZM513.4,203h0ZM513.9,203s0,0,0,0h0ZM513.9,203s0,0,0,0h0Z"/>
    <path class="cls-4" d="M517.4,199.7h0c.1,0,.2,0,.3.1,0,0,.2.2.2.3.3.5.6,1.5.7,2.9v.3s-.3,0-.3,0h-2.4v-.3s0,0,0,0h0s0,0,0,0h0c0-.3,0-.5.1-.7h0c0-.2,0-.5.1-.7.2-1.2.6-1.9,1.1-1.9h0ZM517.4,200.2h0c-.2,0-.4.5-.5,1.4,0,.2,0,.4-.1.6h0c0,.1,0,.3,0,.4h1.4c-.2-1.1-.4-2-.6-2.4,0,0,0-.1-.1-.1,0,0,0,0,0,0h0ZM516.1,203h0ZM516.1,203h0ZM516.1,203h0ZM516.1,203h0s0,0,0,0h0ZM516.1,203h0ZM516.1,203h0s0,0,0,0h0ZM516.1,203h0ZM516.6,203s0,0,0,0h0ZM516.6,203s0,0,0,0h0Z"/>
    <path class="cls-4" d="M520,199.7h0c.1,0,.2,0,.3.1,0,0,.2.2.2.3.3.5.6,1.5.7,2.9v.3s-.3,0-.3,0h-2.4v-.3s0,0,0,0h0s0,0,0,0h0c0-.3,0-.5.1-.7h0c0-.2,0-.5.1-.7.2-1.2.6-1.9,1.1-1.9h0ZM520,200.2h0c-.2,0-.4.5-.5,1.4,0,.2,0,.4-.1.6h0c0,.1,0,.3,0,.4h1.4c-.2-1.1-.4-2-.6-2.4,0,0,0-.1-.1-.1,0,0,0,0,0,0h0ZM518.7,203h0ZM518.7,203h0ZM518.7,203h0ZM518.7,203h0s0,0,0,0h0ZM518.7,203h0ZM518.7,203h0s0,0,0,0h0ZM518.7,203h0,0ZM519.3,203s0,0,0,0h0ZM519.3,203s0,0,0,0h0Z"/>
    <path class="cls-4" d="M522.7,199.7h0c.1,0,.2,0,.3.1,0,0,.2.2.2.3.3.5.6,1.5.7,2.9v.3s-.3,0-.3,0h-2.4v-.3s0,0,0,0h0s0,0,0,0h0c0-.3,0-.5.1-.7h0c0-.2,0-.5.1-.7.2-1.2.6-1.9,1.1-1.9h0ZM522.7,200.2h0c-.2,0-.4.5-.5,1.4,0,.2,0,.4-.1.6h0c0,.1,0,.3,0,.4h1.4c-.2-1.1-.4-2-.6-2.4,0,0,0-.1-.1-.1,0,0,0,0,0,0h0ZM521.4,203h0ZM521.4,203h0ZM521.4,203h0ZM521.4,203h0s0,0,0,0h0ZM521.4,203h0ZM521.4,203h0s0,0,0,0h0ZM521.4,203h0ZM521.9,203s0,0,0,0h0ZM521.9,203s0,0,0,0h0Z"/>
    <path class="cls-4" d="M525.4,199.7h0c.1,0,.2,0,.3.1,0,0,.2.2.2.3.3.5.6,1.5.7,2.9v.3s-.3,0-.3,0h-2.4v-.3s0,0,0,0h0s0,0,0,0h0s0,0,0,0h0c0-.3,0-.5.1-.7h0c0-.2,0-.5.1-.7.2-1.2.6-1.9,1.1-1.9h0ZM525.4,200.2h0c-.2,0-.4.5-.5,1.4,0,.2,0,.4-.1.6h0c0,.1,0,.3,0,.4h1.4c-.2-1.1-.4-2-.6-2.4,0,0,0-.1-.1-.1,0,0,0,0,0,0h0ZM524.1,203h0ZM524.1,203h0ZM524.1,203h0ZM524.1,203h0s0,0,0,0h0ZM524.1,203h0ZM524.1,203h0s0,0,0,0h0ZM524.1,203h0ZM524.6,203s0,0,0,0h0ZM524.6,203s0,0,0,0h0Z"/>
    <path class="cls-4" d="M528,199.7h0c.1,0,.2,0,.3.1,0,0,.2.2.2.3.3.5.6,1.5.7,2.9v.3s-.3,0-.3,0h-2.4v-.3s0,0,0,0h0s0,0,0,0h0c0-.3,0-.5.1-.7h0c0-.2,0-.5.1-.7.2-1.2.6-1.9,1.1-1.9h0ZM528,200.2h0c-.2,0-.4.5-.5,1.4,0,.2,0,.4-.1.6h0c0,.1,0,.3,0,.4h1.4c-.2-1.1-.4-2-.6-2.4,0,0,0-.1-.1-.1,0,0,0,0,0,0h0ZM526.7,203h0ZM526.7,203h0ZM526.7,203h0ZM526.7,203h0s0,0,0,0h0ZM526.7,203h0ZM526.7,203h0s0,0,0,0h0ZM526.7,203h0ZM527.3,203s0,0,0,0h0ZM527.3,203s0,0,0,0h0Z"/>
    <path class="cls-4" d="M530.7,199.7h0c.1,0,.2,0,.3.1,0,0,.2.2.2.3.3.5.6,1.5.7,2.9v.3s-.3,0-.3,0h-2.4v-.3s0,0,0,0h0s0,0,0,0h0s0,0,0,0h0c0-.3,0-.5.1-.7h0c0-.2,0-.5.1-.7.2-1.2.6-1.9,1.1-1.9h0ZM530.7,200.2h0c-.2,0-.4.5-.5,1.4,0,.2,0,.4-.1.6h0c0,.1,0,.3,0,.4h1.4c-.2-1.1-.4-2-.6-2.4,0,0,0-.1-.1-.1,0,0,0,0,0,0h0ZM529.4,203h0ZM529.4,203h0ZM529.4,203h0ZM529.4,203h0s0,0,0,0h0ZM529.4,203h0ZM529.4,203h0s0,0,0,0h0ZM529.4,203h0ZM529.9,203s0,0,0,0h0ZM529.9,203s0,0,0,0h0Z"/>
    <path class="cls-4" d="M533.4,199.7h0c.1,0,.2,0,.3.1,0,0,.2.2.2.3.3.5.6,1.5.7,2.9v.3s-.3,0-.3,0h-2.4v-.3s0,0,0,0h0s0,0,0,0h0s0,0,0,0h0c0-.3,0-.5.1-.7h0c0-.2,0-.5.1-.7.2-1.2.6-1.9,1.1-1.9h0ZM533.4,200.2h0c-.2,0-.4.5-.5,1.4,0,.2,0,.4-.1.6h0c0,.1,0,.3,0,.4h1.4c-.2-1.1-.4-2-.6-2.4,0,0,0-.1-.1-.1,0,0,0,0,0,0h0ZM532.1,203h0ZM532.1,203h0ZM532.1,203h0ZM532.1,203h0s0,0,0,0h0ZM532.1,203h0ZM532.1,203h0s0,0,0,0h0ZM532.1,203h0ZM532.6,203s0,0,0,0h0ZM532.6,203s0,0,0,0h0Z"/>
    <path class="cls-4" d="M536,199.7h0c.1,0,.2,0,.3.1,0,0,.2.2.2.3.3.5.6,1.5.7,2.9v.3s-.3,0-.3,0h-2.4v-.3s0,0,0,0h0s0,0,0,0h0c0-.3,0-.5.1-.7h0c0-.2,0-.5.1-.7.2-1.2.6-1.9,1.1-1.9h0ZM536.1,200.2h0c-.2,0-.4.5-.5,1.4,0,.2,0,.4-.1.6h0c0,.1,0,.3,0,.4h1.4c-.2-1.1-.4-2-.6-2.4,0,0,0-.1-.1-.1,0,0,0,0,0,0h0ZM534.8,203h0ZM534.8,203h0ZM534.8,203h0ZM534.8,203h0s0,0,0,0h0ZM534.8,203h0ZM534.8,203h0s0,0,0,0h0ZM534.8,203h0ZM535.3,203s0,0,0,0h0ZM535.3,203s0,0,0,0h0Z"/>
    <polygon class="cls-4" points="480.1 199.7 493.1 159.1 493.4 159.2 493.6 159 536.2 199.9 535.8 200.3 498.6 164.5 530.3 199.8 529.9 200.1 496.5 163 523.1 199.9 522.6 200.2 496.8 164.3 518 200 517.5 200.3 496 164.1 513 200 512.5 200.2 495.8 164.8 508.7 199.9 508.2 200.1 493.9 161.2 497.6 199.9 497.1 200 493.4 162.5 491 200.2 490.4 200.1 493 161.3 480.6 199.9 480.1 199.7"/>
    <polygon class="cls-5" points="136.1 98.2 182.5 98.2 182.5 217.7 136.1 217.7 136.1 98.2"/>
    <polygon class="cls-5" points="140.3 76 178.3 76 178.3 94.6 140.3 94.6 140.3 76"/>
    <polygon class="cls-5" points="133.8 87.1 184.8 87.1 184.8 104.2 133.8 104.2 133.8 87.1"/>
    <polygon class="cls-5" points="133 87.1 185.6 87.1 185.6 88.7 133 88.7 133 87.1"/>
    <polygon class="cls-5" points="133 102.6 185.6 102.6 185.6 104.2 133 104.2 133 102.6"/>
    <polygon class="cls-5" points="133 97.4 185.6 97.4 185.6 99.1 133 99.1 133 97.4"/>
    <polygon class="cls-5" points="133 92.2 185.6 92.2 185.6 93.9 133 93.9 133 92.2"/>
    <polygon class="cls-5" points="135 85.7 138 85.7 138 88 135 88 135 85.7"/>
    <polygon class="cls-5" points="137.2 85 135.6 85 135.6 86 137.2 86 137.2 85"/>
    <polygon class="cls-5" points="180.2 86.4 183.4 86.4 183.4 87.4 180.2 87.4 180.2 86.4"/>
    <polygon class="cls-5" points="157.9 55.8 157.3 55.8 157.3 80.9 157.9 80.9 157.9 55.8"/>
    <polygon class="cls-5" points="154.2 66.3 153.6 66.3 153.6 80.9 154.2 80.9 154.2 66.3"/>
    <polygon class="cls-5" points="141.8 66.3 141.2 66.3 141.2 80.9 141.8 80.9 141.8 66.3"/>
    <polygon class="cls-5" points="146.6 70.7 146 70.7 146 80.9 146.6 80.9 146.6 70.7"/>
    <polygon class="cls-5" points="164.3 69.2 163.7 69.2 163.7 80.9 164.3 80.9 164.3 69.2"/>
    <polygon class="cls-5" points="169.4 69.2 168.8 69.2 168.8 80.9 169.4 80.9 169.4 69.2"/>
    <polygon class="cls-5" points="159.4 67.1 158.8 67.1 158.8 78.7 159.4 78.7 159.4 67.1"/>
    <polygon class="cls-5" points="176.4 67.8 175.8 67.8 175.8 79.4 176.4 79.4 176.4 67.8"/>
    <polygon class="cls-5" points="171.3 75.3 174.5 75.3 174.5 76.5 171.3 76.5 171.3 75.3"/>
    <polygon class="cls-5" points="144.4 75.2 147.7 75.2 147.7 77.1 144.4 77.1 144.4 75.2"/>
    <polygon class="cls-5" points="143 74.6 141.6 74.6 141.6 76.9 143 76.9 143 74.6"/>
    <polygon class="cls-5" points="151.5 75.7 156.6 75.7 156.6 76.5 151.5 76.5 151.5 75.7"/>
    <polygon class="cls-5" points="161.6 75.3 164.1 75.3 164.1 76.7 161.6 76.7 161.6 75.3"/>
    <polygon class="cls-5" points="172.3 74.7 173.2 74.7 173.2 75.6 172.3 75.6 172.3 74.7"/>
    <polygon class="cls-5" points="181.6 212.5 313.6 212.5 313.6 218.8 181.6 218.8 181.6 212.5"/>
    <path class="cls-5" d="M247.6,199.2c28.3,0,52.9,5.8,64.4,14.1h-128.7c11.5-8.3,36-14.1,64.4-14.1h0Z"/>
    <polygon class="cls-5" points="183.5 216.3 311.6 216.3 311.6 233.6 183.5 233.6 183.5 216.3"/>
    <polygon class="cls-7" points="230.8 150.3 230.9 150.1 245.1 159.2 245 159.4 230.8 150.3"/>
    <polygon class="cls-7" points="238.9 156.1 239.5 155 243.7 157.7 243 158.7 238.9 156.1"/>
    <polygon class="cls-7" points="238.2 155.5 238.8 154.7 239 154.8 238.4 155.6 238.2 155.5"/>
    <polygon class="cls-7" points="237.4 155 238 154.2 238.2 154.3 237.6 155.1 237.4 155"/>
    <polygon class="cls-7" points="235.9 154.2 236.4 153.4 236.6 153.5 236.1 154.3 235.9 154.2"/>
    <polygon class="cls-7" points="235.1 153.7 235.7 152.9 235.9 153 235.3 153.8 235.1 153.7"/>
    <polygon class="cls-7" points="234.3 153.2 234.9 152.4 235.1 152.5 234.5 153.3 234.3 153.2"/>
    <polygon class="cls-7" points="233.5 152.7 234.1 151.9 234.3 152 233.7 152.8 233.5 152.7"/>
    <polygon class="cls-7" points="232.8 152.2 233.3 151.4 233.5 151.5 233 152.3 232.8 152.2"/>
    <polygon class="cls-7" points="232 151.7 232.5 150.9 232.7 151 232.2 151.8 232 151.7"/>
    <polygon class="cls-7" points="231.2 151.2 231.7 150.4 231.9 150.5 231.4 151.3 231.2 151.2"/>
    <polygon class="cls-5" points="464 209.1 578.6 209.1 578.6 222.6 464 222.6 464 209.1"/>
    <polygon class="cls-5" points="17.9 203 41.8 203 41.8 220.4 17.9 220.4 17.9 203"/>
    <polygon class="cls-5" points="40.2 200.1 26.6 200.1 26.6 204.9 40.2 204.9 40.2 200.1"/>
    <polygon class="cls-5" points="52 193.6 89 193.6 89 221.6 52 221.6 52 193.6"/>
    <polygon class="cls-5" points="133 190.7 154.2 190.7 154.2 219.4 133 219.4 133 190.7"/>
    <polygon class="cls-5" points="155.6 182.7 149.6 182.7 149.6 185.2 155.6 185.2 155.6 182.7"/>
    <polygon class="cls-5" points="121.5 200.9 142.7 200.9 142.7 219.4 121.5 219.4 121.5 200.9"/>
    <polygon class="cls-5" points="43.6 203.2 67.6 203.2 67.6 220.6 43.6 220.6 43.6 203.2"/>
    <polygon class="cls-5" points="27.7 199.5 35.8 199.5 35.8 200.9 27.7 200.9 27.7 199.5"/>
    <polygon class="cls-5" points="26.1 202.1 19.9 202.1 19.9 204.2 26.1 204.2 26.1 202.1"/>
    <polygon class="cls-5" points="45 200.1 50.6 200.1 50.6 204.5 45 204.5 45 200.1"/>
    <polygon class="cls-5" points="72.6 204 138.4 204 138.4 224.9 72.6 224.9 72.6 204"/>
    <polygon class="cls-5" points="317 179.4 335.9 179.4 335.9 221.6 317 221.6 317 179.4"/>
    <polygon class="cls-5" points="234.9 170.5 236.2 166.3 247.5 146.7 250.5 143.5 260.4 149.2 244.7 176.2 234.9 170.5"/>
    <path class="cls-6" d="M248.2,160.7c9.6-17.4,21.6-29.4,30.8-31.8l-43.5,79.3c-1.5-11.7,3.1-30,12.6-47.4h0Z"/>
  </g>
  <rect class="cls-8" x="192.2" y="43.7" width="337.8" height="40.3"/>
  <text class="cls-3" transform="translate(192.2 65.5)"><tspan x="0" y="0">Save Century II</tspan></text>
  <text class="cls-1" transform="translate(550.8 131.5) rotate(11) scale(1 1)"><tspan x="0" y="0">!</tspan></text>
</svg>