<?xml version="1.0" encoding="utf-8"?>
<!-- Generator: Adobe Illustrator 28.1.0, SVG Export Plug-In . SVG Version: 6.00 Build 0)  -->
<svg version="1.1" id="Layer_1" xmlns="http://www.w3.org/2000/svg" xmlns:xlink="http://www.w3.org/1999/xlink" x="0px" y="0px"
	 viewBox="0 0 235 235" style="enable-background:new 0 0 235 235;" xml:space="preserve">
<style type="text/css">
	.st0{display:none;fill:#B1B1B1;}
	.st1{fill:#E3E3E3;}
	.st2{display:none;fill:#54B948;}
	.st3{fill:#606060;}
</style>
<g id="UnknownNatural">
	<rect class="st0" width="235" height="235"/>
	<path class="st1" d="M117.5,18.5c-54.7,0-99,44.3-99,99s44.3,99,99,99s99-44.3,99-99S172.2,18.5,117.5,18.5z M117.5,203
		C70.3,203,32,164.7,32,117.5S70.3,32,117.5,32S203,70.3,203,117.5S164.7,203,117.5,203z"/>
	<path class="st2" d="M197.2,118.2c0,44-35.7,79.7-79.7,79.7s-79.7-35.7-79.7-79.7s35.7-79.7,79.7-79.7S197.2,74.2,197.2,118.2z"/>
	<g>
		<path class="st3" d="M154.3,92.3c0,4.7-0.7,8.8-2,12.4s-3.3,6.7-5.8,9.3c-2.5,2.6-5.5,5-9,7.1s-7.4,4-11.8,5.7v15.8h-24.4v-23.4
			c3.3-0.9,6.3-1.8,8.9-2.7c2.7-0.9,5.4-2.4,8.4-4.5c2.7-1.9,4.9-4,6.4-6.5s2.3-5.2,2.3-8.3c0-4.6-1.5-7.9-4.5-9.9s-7.2-3-12.6-3
			c-3.3,0-7.1,0.7-11.3,2.2c-4.2,1.4-8,3.3-11.5,5.6h-2.8V70.9c3-1.2,7.5-2.6,13.7-3.9c6.2-1.4,12.4-2,18.7-2
			c11.4,0,20.5,2.5,27.2,7.6C150.9,77.6,154.3,84.2,154.3,92.3z M127.6,170.4h-28v-18.3h28V170.4L127.6,170.4z"/>
	</g>
</g>
<g id="Layer_1_00000075845702171921489880000017785469874373378475_">
</g>
</svg>
