<?xml version="1.0" encoding="UTF-8"?>
<svg xmlns="http://www.w3.org/2000/svg" xmlns:xlink="http://www.w3.org/1999/xlink" width="118" height="202" viewBox="0 0 118 202">
<path fill="none" stroke-width="0.3985" stroke-linecap="butt" stroke-linejoin="miter" stroke="rgb(0%, 0%, 0%)" stroke-opacity="1" stroke-miterlimit="10" d="M 0.00137611 0.00125 L 28.348182 0.00125 Z M 28.348182 0.00125 L 28.348182 28.345 L 56.694988 28.345 L 56.694988 0.00125 Z M 28.348182 0.00125 " transform="matrix(1.00003, 0, 0, -1, 2.295499, 30.345)"/>
<path fill="none" stroke-width="0.3985" stroke-linecap="butt" stroke-linejoin="miter" stroke="rgb(0%, 0%, 0%)" stroke-opacity="1" stroke-miterlimit="10" d="M 56.694988 0.00125 L 85.041794 0.00125 Z M 85.041794 0.00125 L 85.041794 28.345 L 113.388599 28.345 L 113.388599 0.00125 Z M 85.041794 0.00125 " transform="matrix(1.00003, 0, 0, -1, 2.295499, 30.345)"/>
<path fill="none" stroke-width="0.79701" stroke-linecap="butt" stroke-linejoin="miter" stroke="rgb(0%, 0%, 0%)" stroke-opacity="1" stroke-miterlimit="10" d="M 0.00137611 0.00125 L 0.00137611 28.345 L 113.388599 28.345 L 113.388599 0.00125 Z M 0.00137611 0.00125 " transform="matrix(1.00003, 0, 0, -1, 2.295499, 30.345)"/>
<path fill="none" stroke-width="0.3985" stroke-linecap="butt" stroke-linejoin="miter" stroke="rgb(0%, 0%, 0%)" stroke-opacity="1" stroke-miterlimit="10" d="M 0.00137611 -42.518281 L 28.348182 -42.518281 Z M 28.348182 -42.518281 L 28.348182 -14.174531 L 56.694988 -14.174531 L 56.694988 -42.518281 Z M 28.348182 -42.518281 " transform="matrix(1.00003, 0, 0, -1, 2.295499, 30.345)"/>
<path fill="none" stroke-width="0.3985" stroke-linecap="butt" stroke-linejoin="miter" stroke="rgb(0%, 0%, 0%)" stroke-opacity="1" stroke-miterlimit="10" d="M 56.694988 -42.518281 L 85.041794 -42.518281 Z M 85.041794 -42.518281 L 85.041794 -14.174531 L 113.388599 -14.174531 L 113.388599 -42.518281 Z M 85.041794 -42.518281 " transform="matrix(1.00003, 0, 0, -1, 2.295499, 30.345)"/>
<path fill-rule="nonzero" fill="rgb(84.999084%, 84.999084%, 84.999084%)" fill-opacity="1" stroke-width="0.79701" stroke-linecap="butt" stroke-linejoin="miter" stroke="rgb(0%, 0%, 0%)" stroke-opacity="1" stroke-miterlimit="10" d="M 0.00137611 -42.518281 L 0.00137611 -14.174531 L 56.694988 -14.174531 L 56.694988 -42.518281 Z M 0.00137611 -42.518281 " transform="matrix(1.00003, 0, 0, -1, 2.295499, 30.345)"/>
<path fill="none" stroke-width="0.79701" stroke-linecap="butt" stroke-linejoin="miter" stroke="rgb(0%, 0%, 0%)" stroke-opacity="1" stroke-miterlimit="10" d="M 0.00137611 -42.518281 L 0.00137611 -14.174531 L 113.388599 -14.174531 L 113.388599 -42.518281 Z M 0.00137611 -42.518281 " transform="matrix(1.00003, 0, 0, -1, 2.295499, 30.345)"/>
<path fill="none" stroke-width="0.3985" stroke-linecap="butt" stroke-linejoin="miter" stroke="rgb(0%, 0%, 0%)" stroke-opacity="1" stroke-miterlimit="10" d="M 0.00137611 -85.041719 L 0.00137611 -56.694063 L 28.348182 -56.694063 L 28.348182 -85.041719 Z M 28.348182 -56.694063 L 56.694988 -56.694063 Z M 28.348182 -56.694063 " transform="matrix(1.00003, 0, 0, -1, 2.295499, 30.345)"/>
<path fill="none" stroke-width="0.3985" stroke-linecap="butt" stroke-linejoin="miter" stroke="rgb(0%, 0%, 0%)" stroke-opacity="1" stroke-miterlimit="10" d="M 56.694988 -85.041719 L 56.694988 -56.694063 L 85.041794 -56.694063 L 85.041794 -85.041719 Z M 85.041794 -56.694063 L 113.388599 -56.694063 Z M 85.041794 -56.694063 " transform="matrix(1.00003, 0, 0, -1, 2.295499, 30.345)"/>
<path fill-rule="nonzero" fill="rgb(84.999084%, 84.999084%, 84.999084%)" fill-opacity="1" stroke-width="0.79701" stroke-linecap="butt" stroke-linejoin="miter" stroke="rgb(0%, 0%, 0%)" stroke-opacity="1" stroke-miterlimit="10" d="M 28.348182 -85.041719 L 28.348182 -56.694063 L 85.041794 -56.694063 L 85.041794 -85.041719 Z M 28.348182 -85.041719 " transform="matrix(1.00003, 0, 0, -1, 2.295499, 30.345)"/>
<path fill="none" stroke-width="0.79701" stroke-linecap="butt" stroke-linejoin="miter" stroke="rgb(0%, 0%, 0%)" stroke-opacity="1" stroke-miterlimit="10" d="M 0.00137611 -85.041719 L 0.00137611 -56.694063 L 113.388599 -56.694063 L 113.388599 -85.041719 Z M 0.00137611 -85.041719 " transform="matrix(1.00003, 0, 0, -1, 2.295499, 30.345)"/>
<path fill="none" stroke-width="0.3985" stroke-linecap="butt" stroke-linejoin="miter" stroke="rgb(0%, 0%, 0%)" stroke-opacity="1" stroke-miterlimit="10" d="M 0.00137611 -127.56125 L 28.348182 -127.56125 Z M 28.348182 -127.56125 L 28.348182 -99.213594 L 56.694988 -99.213594 L 56.694988 -127.56125 Z M 28.348182 -127.56125 " transform="matrix(1.00003, 0, 0, -1, 2.295499, 30.345)"/>
<path fill="none" stroke-width="0.3985" stroke-linecap="butt" stroke-linejoin="miter" stroke="rgb(0%, 0%, 0%)" stroke-opacity="1" stroke-miterlimit="10" d="M 56.694988 -127.56125 L 85.041794 -127.56125 Z M 85.041794 -127.56125 L 85.041794 -99.213594 L 113.388599 -99.213594 L 113.388599 -127.56125 Z M 85.041794 -127.56125 " transform="matrix(1.00003, 0, 0, -1, 2.295499, 30.345)"/>
<path fill-rule="nonzero" fill="rgb(84.999084%, 84.999084%, 84.999084%)" fill-opacity="1" stroke-width="0.79701" stroke-linecap="butt" stroke-linejoin="miter" stroke="rgb(0%, 0%, 0%)" stroke-opacity="1" stroke-miterlimit="10" d="M 56.694988 -127.56125 L 56.694988 -99.213594 L 113.388599 -99.213594 L 113.388599 -127.56125 Z M 56.694988 -127.56125 " transform="matrix(1.00003, 0, 0, -1, 2.295499, 30.345)"/>
<path fill="none" stroke-width="0.79701" stroke-linecap="butt" stroke-linejoin="miter" stroke="rgb(0%, 0%, 0%)" stroke-opacity="1" stroke-miterlimit="10" d="M 0.00137611 -127.56125 L 0.00137611 -99.213594 L 113.388599 -99.213594 L 113.388599 -127.56125 Z M 0.00137611 -127.56125 " transform="matrix(1.00003, 0, 0, -1, 2.295499, 30.345)"/>
<path fill="none" stroke-width="0.3985" stroke-linecap="butt" stroke-linejoin="miter" stroke="rgb(0%, 0%, 0%)" stroke-opacity="1" stroke-miterlimit="10" d="M 0.00137611 -170.080781 L 28.348182 -170.080781 Z M 28.348182 -170.080781 L 28.348182 -141.733125 L 56.694988 -141.733125 L 56.694988 -170.080781 Z M 28.348182 -170.080781 " transform="matrix(1.00003, 0, 0, -1, 2.295499, 30.345)"/>
<path fill="none" stroke-width="0.3985" stroke-linecap="butt" stroke-linejoin="miter" stroke="rgb(0%, 0%, 0%)" stroke-opacity="1" stroke-miterlimit="10" d="M 56.694988 -170.080781 L 85.041794 -170.080781 Z M 85.041794 -170.080781 L 85.041794 -141.733125 L 113.388599 -141.733125 L 113.388599 -170.080781 Z M 85.041794 -170.080781 " transform="matrix(1.00003, 0, 0, -1, 2.295499, 30.345)"/>
<path fill-rule="nonzero" fill="rgb(84.999084%, 84.999084%, 84.999084%)" fill-opacity="1" stroke-width="0.79701" stroke-linecap="butt" stroke-linejoin="miter" stroke="rgb(0%, 0%, 0%)" stroke-opacity="1" stroke-miterlimit="10" d="M 0.00137611 -170.080781 L 0.00137611 -141.733125 L 56.694988 -141.733125 L 56.694988 -170.080781 Z M 0.00137611 -170.080781 " transform="matrix(1.00003, 0, 0, -1, 2.295499, 30.345)"/>
<path fill-rule="nonzero" fill="rgb(84.999084%, 84.999084%, 84.999084%)" fill-opacity="1" stroke-width="0.79701" stroke-linecap="butt" stroke-linejoin="miter" stroke="rgb(0%, 0%, 0%)" stroke-opacity="1" stroke-miterlimit="10" d="M 56.694988 -170.080781 L 56.694988 -141.733125 L 113.388599 -141.733125 L 113.388599 -170.080781 Z M 56.694988 -170.080781 " transform="matrix(1.00003, 0, 0, -1, 2.295499, 30.345)"/>
<path fill="none" stroke-width="0.79701" stroke-linecap="butt" stroke-linejoin="miter" stroke="rgb(0%, 0%, 0%)" stroke-opacity="1" stroke-miterlimit="10" d="M 0.00137611 -170.080781 L 0.00137611 -141.733125 L 113.388599 -141.733125 L 113.388599 -170.080781 Z M 0.00137611 -170.080781 " transform="matrix(1.00003, 0, 0, -1, 2.295499, 30.345)"/>
</svg>
