<?xml version="1.0" encoding="UTF-8"?>
<svg xmlns="http://www.w3.org/2000/svg" xmlns:xlink="http://www.w3.org/1999/xlink" width="267" height="32" viewBox="0 0 267 32">
<path fill="none" stroke-width="0.3985" stroke-linecap="butt" stroke-linejoin="miter" stroke="rgb(0%, 0%, 0%)" stroke-opacity="1" stroke-miterlimit="10" d="M 0.00171016 0.00153687 L 28.347949 0.00153687 Z M 28.347949 0.00153687 L 28.347949 28.348626 L 56.694188 28.348626 L 56.694188 0.00153687 Z M 28.347949 0.00153687 " transform="matrix(1.00005, 0, 0, -1.00002, 2.295165, 30.345287)"/>
<path fill="none" stroke-width="0.3985" stroke-linecap="butt" stroke-linejoin="miter" stroke="rgb(0%, 0%, 0%)" stroke-opacity="1" stroke-miterlimit="10" d="M 28.347949 0.00153687 L 56.694188 0.00153687 Z M 56.694188 0.00153687 L 56.694188 28.348626 L 85.040427 28.348626 L 85.040427 0.00153687 Z M 56.694188 0.00153687 " transform="matrix(1.00005, 0, 0, -1.00002, 2.295165, 30.345287)"/>
<path fill="none" stroke-width="0.79701" stroke-linecap="butt" stroke-linejoin="miter" stroke="rgb(0%, 0%, 0%)" stroke-opacity="1" stroke-miterlimit="10" d="M 0.00171016 0.00153687 L 0.00171016 28.348626 L 85.040427 28.348626 L 85.040427 0.00153687 Z M 0.00171016 0.00153687 " transform="matrix(1.00005, 0, 0, -1.00002, 2.295165, 30.345287)"/>
<path fill="none" stroke-width="0.3985" stroke-linecap="butt" stroke-linejoin="miter" stroke="rgb(0%, 0%, 0%)" stroke-opacity="1" stroke-miterlimit="10" d="M -0.000497425 0.00153687 L 28.345742 0.00153687 Z M 28.345742 0.00153687 L 28.345742 28.348626 L 56.69198 28.348626 L 56.69198 0.00153687 Z M 28.345742 0.00153687 " transform="matrix(1.00005, 0, 0, -1.00002, 91.453622, 30.345287)"/>
<path fill="none" stroke-width="0.3985" stroke-linecap="butt" stroke-linejoin="miter" stroke="rgb(0%, 0%, 0%)" stroke-opacity="1" stroke-miterlimit="10" d="M 28.345742 0.00153687 L 56.69198 0.00153687 Z M 56.69198 0.00153687 L 56.69198 28.348626 L 85.042125 28.348626 L 85.042125 0.00153687 Z M 56.69198 0.00153687 " transform="matrix(1.00005, 0, 0, -1.00002, 91.453622, 30.345287)"/>
<path fill-rule="nonzero" fill="rgb(84.999084%, 84.999084%, 84.999084%)" fill-opacity="1" stroke-width="0.79701" stroke-linecap="butt" stroke-linejoin="miter" stroke="rgb(0%, 0%, 0%)" stroke-opacity="1" stroke-miterlimit="10" d="M -0.000497425 0.00153687 L -0.000497425 28.348626 L 56.69198 28.348626 L 56.69198 0.00153687 Z M -0.000497425 0.00153687 " transform="matrix(1.00005, 0, 0, -1.00002, 91.453622, 30.345287)"/>
<path fill="none" stroke-width="0.79701" stroke-linecap="butt" stroke-linejoin="miter" stroke="rgb(0%, 0%, 0%)" stroke-opacity="1" stroke-miterlimit="10" d="M -0.000497425 0.00153687 L -0.000497425 28.348626 L 85.042125 28.348626 L 85.042125 0.00153687 Z M -0.000497425 0.00153687 " transform="matrix(1.00005, 0, 0, -1.00002, 91.453622, 30.345287)"/>
<path fill="none" stroke-width="0.3985" stroke-linecap="butt" stroke-linejoin="miter" stroke="rgb(0%, 0%, 0%)" stroke-opacity="1" stroke-miterlimit="10" d="M 0.00120104 0.00153687 L 28.34744 0.00153687 Z M 28.34744 0.00153687 L 28.34744 28.348626 L 56.693679 28.348626 L 56.693679 0.00153687 Z M 28.34744 0.00153687 " transform="matrix(1.00005, 0, 0, -1.00002, 180.61208, 30.345287)"/>
<path fill="none" stroke-width="0.3985" stroke-linecap="butt" stroke-linejoin="miter" stroke="rgb(0%, 0%, 0%)" stroke-opacity="1" stroke-miterlimit="10" d="M 28.34744 0.00153687 L 56.693679 0.00153687 Z M 56.693679 0.00153687 L 56.693679 28.348626 L 85.039918 28.348626 L 85.039918 0.00153687 Z M 56.693679 0.00153687 " transform="matrix(1.00005, 0, 0, -1.00002, 180.61208, 30.345287)"/>
<path fill-rule="nonzero" fill="rgb(84.999084%, 84.999084%, 84.999084%)" fill-opacity="1" stroke-width="0.79701" stroke-linecap="butt" stroke-linejoin="miter" stroke="rgb(0%, 0%, 0%)" stroke-opacity="1" stroke-miterlimit="10" d="M 28.34744 0.00153687 L 28.34744 28.348626 L 85.039918 28.348626 L 85.039918 0.00153687 Z M 28.34744 0.00153687 " transform="matrix(1.00005, 0, 0, -1.00002, 180.61208, 30.345287)"/>
<path fill="none" stroke-width="0.79701" stroke-linecap="butt" stroke-linejoin="miter" stroke="rgb(0%, 0%, 0%)" stroke-opacity="1" stroke-miterlimit="10" d="M 0.00120104 0.00153687 L 0.00120104 28.348626 L 85.039918 28.348626 L 85.039918 0.00153687 Z M 0.00120104 0.00153687 " transform="matrix(1.00005, 0, 0, -1.00002, 180.61208, 30.345287)"/>
</svg>
