<?xml version="1.0" encoding="utf-8"?>
<!-- Generator: Adobe Illustrator 28.1.0, SVG Export Plug-In . SVG Version: 6.00 Build 0)  -->
<svg version="1.1"
	 id="svg17515" xmlns:sodipodi="http://sodipodi.sourceforge.net/DTD/sodipodi-0.dtd" xmlns:dc="http://purl.org/dc/elements/1.1/" xmlns:svg="http://www.w3.org/2000/svg" xmlns:inkscape="http://www.inkscape.org/namespaces/inkscape" xmlns:rdf="http://www.w3.org/1999/02/22-rdf-syntax-ns#" xmlns:cc="http://creativecommons.org/ns#"
	 xmlns="http://www.w3.org/2000/svg" xmlns:xlink="http://www.w3.org/1999/xlink" x="0px" y="0px" viewBox="0 0 32 32"
	 style="enable-background:new 0 0 32 32;" xml:space="preserve">
<style type="text/css">
	.st0{fill-rule:evenodd;clip-rule:evenodd;fill:#FFFFFF;}
</style>
<sodipodi:namedview  bordercolor="#666666" borderopacity="1.0" id="base" inkscape:current-layer="layer1" inkscape:cx="-0.16580908" inkscape:cy="8.1883846" inkscape:document-units="px" inkscape:pageopacity="0.0" inkscape:pageshadow="2" inkscape:window-height="716" inkscape:window-maximized="1" inkscape:window-width="1366" inkscape:window-x="-8" inkscape:window-y="-8" inkscape:zoom="8.0000001" pagecolor="#ffffff" showgrid="false" units="px">
	</sodipodi:namedview>
<g id="layer1" transform="translate(0,-1020.3622)" inkscape:groupmode="layer" inkscape:label="Layer 1">
	<path id="path54540" inkscape:connector-curvature="0" class="st0" d="M23.1,1022.9c0.2,0,0.4,0.1,0.6,0.3c0.8,0.7,1,1.4,1.2,2
		c-0.1,0-0.3-0.1-0.4-0.1c-0.6-0.8-1.3-1.3-2-1.6l0.2-0.4C22.8,1023,22.9,1022.9,23.1,1022.9L23.1,1022.9z"/>
	
		<path id="path54538" inkscape:connector-curvature="0" sodipodi:nodetypes="sccccccccccccssccsccccccccscccccccccccccccssssss" class="st0" d="
		M20.5,1023.9L20.5,1023.9c-0.1,0-0.2,0-0.3,0.1c-0.1,0.1-0.2,0.2-0.2,0.5c0.1,1.1,0.7,2.3,0.7,2.3l0.4,1c0,0-2.8,2.6-4.3,3.7
		l-1.3,1c-1.4,1-3.7,2.5-4.7,3.6c-1.8,2-2.5,4.8-1.7,7.5c1,3.6,4.4,6.1,8.2,5.8c0,0,0,0,0,0l8,0c0.4,0,0.8-0.3,0.8-0.8
		c0-0.4-0.3-0.8-0.8-0.8h-4.8c-0.5,0-0.7-0.6-0.3-0.9c2.2-1.4,2.6-4.2,2.2-5.9c-0.3-1.3-1.7-2.8-2.7-3.4c0,0,0.5,0,2.2,1.1l1.5,0.4
		c0.9,0.3,1.9,0.1,2.7-0.4l2.6-1.6c0.3-0.2,0.7-0.4,1.1-0.5c0.4-0.1,0.7-0.5,0.6-0.9v0v-0.2c0-0.3-0.2-0.5-0.5-0.5
		c-0.3,0-0.6-0.1-0.8,0.3h0c-0.3,0.3-0.6,0.7-1,0.9l-1.2,0.5c-1,0.3-2.3,0.3-3.3-0.5c-0.4-0.4-0.8-0.9-0.9-1.5
		c-0.2-0.8,0.1-2.1,0.1-2.1s1.3,1.2,4.5,0.4c0.9-0.3,1.3-0.7,1.6-1.2c0.2-0.5,0.3-1,0.2-1.6c-0.3-2-2.5-3.8-4.9-4.2
		c-0.1,0-0.2-0.1-0.3-0.2c-0.8-1.2-1.8-1.6-3-2C20.7,1023.9,20.6,1023.9,20.5,1023.9L20.5,1023.9z M25.5,1028.9
		c0.3,0,0.5,0.2,0.5,0.5c0,0.3-0.2,0.5-0.5,0.5s-0.5-0.2-0.5-0.5C25,1029.1,25.2,1028.9,25.5,1028.9z"/>
	<path id="path10627-8" inkscape:connector-curvature="0" class="st0" d="M7.5,1025.3c0.7,0,1.4,0.1,2.2,0.4c2.8,1.1,4.4,4.1,3.7,7
		c-1.2,0.8-2.4,1.7-3.3,2.6c-2,2.2-2.8,5.4-2,8.4c0.5,1.9,1.7,3.6,3.2,4.7c-1.6-0.5-3.1-1.6-4.1-3.1c-1.4-2.2-1.8-5.1-0.5-7.3
		c0.2-0.4,0.5-0.8,0.7-1.2c0.4-0.8,0.8-1.7,0.3-2.7c-0.4-0.9-1.4-1.5-2.4-1.4c-1,0.1-1.9,0.8-2.2,1.7c-0.1,0.3,0,0.6,0,1
		c-0.7-0.6-1.3-1.4-1.5-2.4c-0.3-1.5-0.1-3.1,0.6-4.5C3.3,1026.6,5.3,1025.4,7.5,1025.3L7.5,1025.3z"/>
</g>
</svg>
