<?xml version="1.0" encoding="UTF-8" standalone="no"?>
<!-- Created with Inkscape (http://www.inkscape.org/) -->

<svg
   xmlns:dc="http://purl.org/dc/elements/1.1/"
   xmlns:cc="http://creativecommons.org/ns#"
   xmlns:rdf="http://www.w3.org/1999/02/22-rdf-syntax-ns#"
   xmlns:svg="http://www.w3.org/2000/svg"
   xmlns="http://www.w3.org/2000/svg"
   xmlns:sodipodi="http://sodipodi.sourceforge.net/DTD/sodipodi-0.dtd"
   xmlns:inkscape="http://www.inkscape.org/namespaces/inkscape"
   width="32"
   height="32"
   viewBox="0 0 32 32.000001"
   id="svg17515"
   version="1.1"
   inkscape:version="0.91 r13725"
   sodipodi:docname="squirrel-animal-autumn.svg">
  <defs
     id="defs17517">
    <clipPath
       clipPathUnits="userSpaceOnUse"
       id="clipPath32617-9-8-8-9">
      <circle
         r="38.553814"
         cy="50.047192"
         cx="-64.623535"
         style="fill:#4bb7c0;fill-opacity:1;stroke:none"
         id="path32619-2-3-5-1"
         transform="matrix(9.3443438,0,0,9.3443438,-627.91229,-5859.5225)" />
    </clipPath>
    <clipPath
       clipPathUnits="userSpaceOnUse"
       id="clipPath19550">
      <circle
         r="38.553814"
         cy="50.047192"
         cx="-64.623535"
         style="fill:#4bb7c0;fill-opacity:1;stroke:none"
         id="circle19552"
         transform="matrix(9.3443438,0,0,9.3443438,-627.91229,-5859.5225)" />
    </clipPath>
  </defs>
  <sodipodi:namedview
     id="base"
     pagecolor="#ffffff"
     bordercolor="#666666"
     borderopacity="1.0"
     inkscape:pageopacity="0.0"
     inkscape:pageshadow="2"
     inkscape:zoom="5.6568543"
     inkscape:cx="-17.117295"
     inkscape:cy="3.949551"
     inkscape:document-units="px"
     inkscape:current-layer="layer1"
     showgrid="false"
     units="px"
     inkscape:window-width="1366"
     inkscape:window-height="716"
     inkscape:window-x="-8"
     inkscape:window-y="-8"
     inkscape:window-maximized="1" />
  <metadata
     id="metadata17520">
    <rdf:RDF>
      <cc:Work
         rdf:about="">
        <dc:format>image/svg+xml</dc:format>
        <dc:type
           rdf:resource="http://purl.org/dc/dcmitype/StillImage" />
        <dc:title></dc:title>
      </cc:Work>
    </rdf:RDF>
  </metadata>
  <g
     inkscape:label="Layer 1"
     inkscape:groupmode="layer"
     id="layer1"
     transform="translate(0,-1020.3622)">
    <path
       style="color:#000000;font-style:normal;font-variant:normal;font-weight:normal;font-stretch:normal;font-size:medium;line-height:normal;font-family:sans-serif;text-indent:0;text-align:start;text-decoration:none;text-decoration-line:none;text-decoration-style:solid;text-decoration-color:#000000;letter-spacing:normal;word-spacing:normal;text-transform:none;direction:ltr;writing-mode:lr-tb;baseline-shift:baseline;text-anchor:start;white-space:normal;clip-rule:nonzero;display:inline;overflow:visible;visibility:visible;opacity:1;isolation:auto;mix-blend-mode:normal;color-interpolation:sRGB;color-interpolation-filters:linearRGB;solid-color:#000000;solid-opacity:1;fill:#000000;fill-opacity:1;fill-rule:evenodd;stroke:none;stroke-width:1px;stroke-linecap:butt;stroke-linejoin:miter;stroke-miterlimit:4;stroke-dasharray:none;stroke-dashoffset:0;stroke-opacity:1;color-rendering:auto;image-rendering:auto;shape-rendering:auto;text-rendering:auto;enable-background:accumulate"
       d="m 22.72926,1033.4675 -0.95899,0.2871 0.45508,1.5176 -0.0117,-0.051 c 0.11378,0.6094 0.42548,1.164 0.88868,1.5761 1.00367,0.8156 2.41491,0.8278 3.33398,0.4512 l 1.21289,-0.4668 c 0.51127,-0.1753 0.82711,-0.539 1.02163,-0.8947 0.0852,-0.1704 0.25683,-0.2754 0.44727,-0.2754 l 0.38086,0 c 0.28206,0 0.5,0.2179 0.5,0.5 l 0,0.1738 0,0 c 0.008,0.4165 -0.24798,0.7869 -0.64063,0.9258 -0.38177,0.128 -0.74821,0.2978 -1.09179,0.5078 l -2.56641,1.5684 c -0.8124,0.4964 -1.79548,0.6307 -2.71094,0.3691 l -1.85156,-0.5293 -0.27539,0.961 1.85352,0.5293 c 1.18383,0.3382 2.4553,0.1654 3.50586,-0.4766 l 2.5664,-1.5684 c 0.27975,-0.1709 0.57781,-0.3099 0.88867,-0.414 0.002,-7e-4 0.004,0 0.006,0 l 0.008,0 c 0.79481,-0.2812 1.32396,-1.0438 1.30859,-1.8867 l 0,-0.1602 c 0,-0.8225 -0.6775,-1.5 -1.5,-1.5 l -0.38086,0 c -0.56458,0 -1.08109,0.3209 -1.33594,0.8242 l -0.002,0 c -0.10024,0.1905 -0.26824,0.3351 -0.4707,0.4082 l -0.004,0 -1.22852,0.4726 c -0.77384,0.2977 -1.64035,0.1847 -2.32031,-0.2871 -0.28741,-0.263 -0.48896,-0.6068 -0.56055,-0.9902 l -0.006,-0.027 z"
       id="path18910"
       inkscape:connector-curvature="0"
       sodipodi:nodetypes="ccccccccsssccccccccccccsccsssccccccccc" />
    <path
       style="color:#000000;font-style:normal;font-variant:normal;font-weight:normal;font-stretch:normal;font-size:medium;line-height:normal;font-family:sans-serif;text-indent:0;text-align:start;text-decoration:none;text-decoration-line:none;text-decoration-style:solid;text-decoration-color:#000000;letter-spacing:normal;word-spacing:normal;text-transform:none;direction:ltr;writing-mode:lr-tb;baseline-shift:baseline;text-anchor:start;white-space:normal;clip-rule:nonzero;display:inline;overflow:visible;visibility:visible;opacity:1;isolation:auto;mix-blend-mode:normal;color-interpolation:sRGB;color-interpolation-filters:linearRGB;solid-color:#000000;solid-opacity:1;fill:#000000;fill-opacity:1;fill-rule:evenodd;stroke:none;stroke-width:1;stroke-linecap:round;stroke-linejoin:round;stroke-miterlimit:4;stroke-dasharray:none;stroke-dashoffset:0;stroke-opacity:1;color-rendering:auto;image-rendering:auto;shape-rendering:auto;text-rendering:auto;enable-background:accumulate"
       d="m 21.72145,1026.3464 c -0.0787,0.01 -0.155,0.029 -0.22266,0.07 -0.44556,0.2573 -1.06043,0.5638 -1.59375,1.0683 -0.003,0 -0.007,0.01 -0.01,0.01 -1.31551,1.3155 -2.71943,2.5397 -4.20312,3.6621 l -1.29297,0.9785 c -1.28384,0.9712 -3.62566,2.3769 -4.83398,3.7305 -1.99559,2.2354 -2.79716,5.3893 -1.95704,8.4082 1.13263,4.07 4.95172,6.8086 9.16993,6.5742 l 7.9707,0.014 c 0.98271,-0.01 1.72819,-0.7352 1.75,-1.75 0,-0.9606 -0.78944,-1.7484 -1.75,-1.75 l -3.37004,-0.01 c 1.70514,-1.8163 2.15651,-4.5107 0.9716,-6.8343 -1.39393,-2.7336 -4.63654,-3.9759 -7.5,-2.8731 -0.62243,0.2396 -0.26305,1.1732 0.35938,0.9336 2.39344,-0.9218 5.08487,0.1097 6.25,2.3945 1.16514,2.2849 0.41927,5.0689 -1.73242,6.4649 -0.41834,0.2706 -0.22677,0.9198 0.27148,0.9199 l 4.75,0 c 0.42016,0 0.75,0.3298 0.75,0.75 0,0.4201 -0.32889,0.7507 -0.74805,0.75 l -8,-0.014 c -0.01,-3e-4 -0.0195,-3e-4 -0.0293,0 -3.7549,0.2086 -7.14216,-2.2208 -8.1504,-5.8438 -0.74785,-2.6873 -0.0329,-5.4883 1.74024,-7.4746 0.9963,-1.116 3.32133,-2.5632 4.69141,-3.5996 l 1.29296,-0.9785 c 1.51665,-1.1474 2.9517,-2.398 4.29688,-3.7422 0.39688,-0.3755 0.92549,-0.652 1.40625,-0.9297 0.46576,-0.2601 0.25494,-0.9713 -0.27734,-0.9355 z"
       id="path18900"
       inkscape:connector-curvature="0"
       sodipodi:nodetypes="cccccccscccscccccccssccccccccccc" />
    <path
       style="color:#000000;font-style:normal;font-variant:normal;font-weight:normal;font-stretch:normal;font-size:medium;line-height:normal;font-family:sans-serif;text-indent:0;text-align:start;text-decoration:none;text-decoration-line:none;text-decoration-style:solid;text-decoration-color:#000000;letter-spacing:normal;word-spacing:normal;text-transform:none;direction:ltr;writing-mode:lr-tb;baseline-shift:baseline;text-anchor:start;white-space:normal;clip-rule:nonzero;display:inline;overflow:visible;visibility:visible;opacity:1;isolation:auto;mix-blend-mode:normal;color-interpolation:sRGB;color-interpolation-filters:linearRGB;solid-color:#000000;solid-opacity:1;fill:#000000;fill-opacity:1;fill-rule:evenodd;stroke:none;stroke-width:1.00157475;stroke-linecap:round;stroke-linejoin:round;stroke-miterlimit:4;stroke-dasharray:none;stroke-dashoffset:0;stroke-opacity:1;color-rendering:auto;image-rendering:auto;shape-rendering:auto;text-rendering:auto;enable-background:accumulate"
       d="m 20.6902,1023.4811 c -0.52891,-0.1678 -1.07784,-0.1374 -1.50586,0.1446 -0.42803,0.282 -0.66898,0.8236 -0.61524,1.4023 0.14593,1.5717 0.65299,2.4224 0.98633,3.0547 a 0.50104256,0.50104256 0 1 0 0.88672,-0.4668 c -0.35832,-0.6797 -0.74672,-1.277 -0.87695,-2.6797 -0.0272,-0.2925 0.0507,-0.3961 0.16992,-0.4746 0.11921,-0.079 0.34527,-0.1241 0.65039,-0.027 a 0.50083746,0.50083746 0 0 0 0.002,0 c 1.14536,0.3633 2.11644,0.8045 2.95703,1.9589 a 0.50083746,0.50083746 0 0 0 0.31836,0.1993 c 2.40763,0.4214 4.60038,2.1834 4.90039,4.2148 0.0863,0.5846 0.0555,1.1518 -0.17773,1.6172 -0.2332,0.4654 -0.66297,0.8771 -1.5586,1.1562 -1.8157,0.566 -4.12095,0.1447 -5.13281,-0.8085 a 0.50084142,0.50084142 0 1 0 -0.6875,0.7285 c 1.41322,1.3313 3.96341,1.7064 6.11719,1.0351 1.0891,-0.3394 1.7981,-0.9434 2.1582,-1.6621 0.36011,-0.7187 0.37818,-1.5038 0.27344,-2.2129 -0.37891,-2.5656 -2.85985,-4.4751 -5.56055,-5.0058 -0.96732,-1.2248 -2.14315,-1.8054 -3.30468,-2.1739 z"
       id="path18902"
       inkscape:connector-curvature="0" />
    <path
       style="color:#000000;font-style:normal;font-variant:normal;font-weight:normal;font-stretch:normal;font-size:medium;line-height:normal;font-family:sans-serif;text-indent:0;text-align:start;text-decoration:none;text-decoration-line:none;text-decoration-style:solid;text-decoration-color:#000000;letter-spacing:normal;word-spacing:normal;text-transform:none;direction:ltr;writing-mode:lr-tb;baseline-shift:baseline;text-anchor:start;white-space:normal;clip-rule:nonzero;display:inline;overflow:visible;visibility:visible;opacity:1;isolation:auto;mix-blend-mode:normal;color-interpolation:sRGB;color-interpolation-filters:linearRGB;solid-color:#000000;solid-opacity:1;fill:#000000;fill-opacity:1;fill-rule:evenodd;stroke:none;stroke-width:1px;stroke-linecap:butt;stroke-linejoin:miter;stroke-miterlimit:4;stroke-dasharray:none;stroke-dashoffset:0;stroke-opacity:1;color-rendering:auto;image-rendering:auto;shape-rendering:auto;text-rendering:auto;enable-background:accumulate"
       d="m 22.57691,1022.4421 c -0.46722,-0.01 -0.9666,0.2509 -1.22851,0.7226 l -0.44141,0.793 0.875,0.4863 0.44141,-0.7949 c 0.10444,-0.1881 0.1802,-0.2115 0.33789,-0.209 0.15769,0 0.39717,0.096 0.60352,0.2813 1.16042,1.0424 1.1463,2.0157 1.6289,3.084 l 0.91211,-0.4122 c -0.36638,-0.8109 -0.47261,-2.158 -1.87305,-3.416 -0.35509,-0.3189 -0.78863,-0.5277 -1.25586,-0.5351 z"
       id="path18904"
       inkscape:connector-curvature="0" />
    <path
       style="color:#000000;font-style:normal;font-variant:normal;font-weight:normal;font-stretch:normal;font-size:medium;line-height:normal;font-family:sans-serif;text-indent:0;text-align:start;text-decoration:none;text-decoration-line:none;text-decoration-style:solid;text-decoration-color:#000000;letter-spacing:normal;word-spacing:normal;text-transform:none;direction:ltr;writing-mode:lr-tb;baseline-shift:baseline;text-anchor:start;white-space:normal;clip-rule:nonzero;display:inline;overflow:visible;visibility:visible;opacity:1;isolation:auto;mix-blend-mode:normal;color-interpolation:sRGB;color-interpolation-filters:linearRGB;solid-color:#000000;solid-opacity:1;fill:#000000;fill-opacity:1;fill-rule:evenodd;stroke:none;stroke-width:1.00157475;stroke-linecap:round;stroke-linejoin:round;stroke-miterlimit:4;stroke-dasharray:none;stroke-dashoffset:0;stroke-opacity:1;color-rendering:auto;image-rendering:auto;shape-rendering:auto;text-rendering:auto;enable-background:accumulate"
       d="m 6.9441,1024.8503 c -2.52002,0.036 -4.9138,1.4509 -6.11523,3.8261 -0.80086,1.5833 -1.02955,3.4781 -0.65039,5.1739 0.37915,1.6957 1.40341,3.2173 3.10937,3.8847 l 0.31055,0.1211 a 0.50083746,0.50083746 0 0 0 0.50195,-0.8515 c -0.46942,-0.3906 -0.65643,-1.0279 -0.4707,-1.6133 0.18575,-0.5854 0.70189,-0.9922 1.30859,-1.0371 0.60636,-0.045 1.17695,0.2822 1.44531,0.834 0.25443,0.5231 0.0816,1.1036 -0.29296,1.75 -0.2289,0.395 -0.45856,0.7884 -0.6875,1.1836 -1.51053,2.6067 -1.09448,5.8703 0.5039,8.3496 1.60525,2.4899 4.3884,3.9591 7.33985,3.873 a 0.50083746,0.50083746 0 1 0 -0.0293,-1 c -2.60138,0.076 -5.05182,-1.2182 -6.46875,-3.416 -1.4238,-2.2085 -1.76511,-5.0844 -0.47852,-7.3047 0.22892,-0.3951 0.45856,-0.7884 0.6875,-1.1836 0.44335,-0.765 0.78549,-1.745 0.32618,-2.6894 -0.44534,-0.9157 -1.40435,-1.4711 -2.41797,-1.3965 -1.0133,0.075 -1.8834,0.7636 -2.19141,1.7344 -0.10158,0.3202 -0.0375,0.6424 -0.01,0.9648 -0.72232,-0.6226 -1.28307,-1.408 -1.50977,-2.4219 -0.3247,-1.4522 -0.12007,-3.1429 0.56836,-4.5039 1.37659,-2.7216 4.55013,-3.9652 7.39258,-2.9004 1.42124,0.5325 2.52819,1.5572 3.1914,2.8203 0.33162,0.6317 0.55106,1.3214 0.64258,2.0391 a 0.5011096,0.5011096 0 1 0 0.99414,-0.127 c -0.10679,-0.8374 -0.36342,-1.6425 -0.75,-2.3789 -0.77317,-1.4726 -2.06981,-2.6703 -3.72656,-3.291 -0.82838,-0.3103 -1.68343,-0.4513 -2.52344,-0.4394 z"
       id="path18906"
       inkscape:connector-curvature="0" />
    <path
       style="color:#000000;font-style:normal;font-variant:normal;font-weight:normal;font-stretch:normal;font-size:medium;line-height:normal;font-family:sans-serif;text-indent:0;text-align:start;text-decoration:none;text-decoration-line:none;text-decoration-style:solid;text-decoration-color:#000000;letter-spacing:normal;word-spacing:normal;text-transform:none;direction:ltr;writing-mode:lr-tb;baseline-shift:baseline;text-anchor:start;white-space:normal;clip-rule:nonzero;display:inline;overflow:visible;visibility:visible;opacity:1;isolation:auto;mix-blend-mode:normal;color-interpolation:sRGB;color-interpolation-filters:linearRGB;solid-color:#000000;solid-opacity:1;fill:#000000;fill-opacity:1;fill-rule:evenodd;stroke:none;stroke-width:1.00157475;stroke-linecap:round;stroke-linejoin:round;stroke-miterlimit:4;stroke-dasharray:none;stroke-dashoffset:0;stroke-opacity:1;color-rendering:auto;image-rendering:auto;shape-rendering:auto;text-rendering:auto;enable-background:accumulate"
       d="m 6.95777,1027.6667 c -1.96484,0.029 -3.83319,1.145 -4.76757,3.0117 -0.62281,1.2443 -0.80073,2.724 -0.50586,4.0566 0.14743,0.6664 0.41571,1.2978 0.82031,1.834 a 0.50136336,0.50136336 0 1 0 0.80078,-0.6035 c -0.30482,-0.404 -0.52185,-0.9016 -0.64258,-1.4473 -0.24147,-1.0913 -0.0882,-2.3696 0.42383,-3.3925 1.02379,-2.0453 3.37405,-2.9739 5.48242,-2.1758 a 0.50096972,0.50096972 0 1 0 0.35352,-0.9375 c -0.64563,-0.2444 -1.3099,-0.3553 -1.96485,-0.3457 z"
       id="path18908"
       inkscape:connector-curvature="0" />
    <path
       inkscape:connector-curvature="0"
       style="opacity:1;fill:#000000;fill-opacity:1;fill-rule:evenodd;stroke:none;stroke-width:1;stroke-linecap:round;stroke-linejoin:round;stroke-miterlimit:4;stroke-dasharray:none;stroke-dashoffset:0;stroke-opacity:1"
       d="m 25.4994,1029.8618 a 0.5,0.5 0 0 1 -0.5,0.5 0.5,0.5 0 0 1 -0.5,-0.5 0.5,0.5 0 0 1 0.5,-0.5 0.5,0.5 0 0 1 0.5,0.5 z"
       id="path18912" />
    <path
       style="color:#000000;font-style:normal;font-variant:normal;font-weight:normal;font-stretch:normal;font-size:medium;line-height:normal;font-family:sans-serif;text-indent:0;text-align:start;text-decoration:none;text-decoration-line:none;text-decoration-style:solid;text-decoration-color:#000000;letter-spacing:normal;word-spacing:normal;text-transform:none;direction:ltr;writing-mode:lr-tb;baseline-shift:baseline;text-anchor:start;white-space:normal;clip-rule:nonzero;display:inline;overflow:visible;visibility:visible;opacity:1;isolation:auto;mix-blend-mode:normal;color-interpolation:sRGB;color-interpolation-filters:linearRGB;solid-color:#000000;solid-opacity:1;fill:#000000;fill-opacity:1;fill-rule:evenodd;stroke:none;stroke-width:1;stroke-linecap:round;stroke-linejoin:round;stroke-miterlimit:4;stroke-dasharray:none;stroke-dashoffset:0;stroke-opacity:1;color-rendering:auto;image-rendering:auto;shape-rendering:auto;text-rendering:auto;enable-background:accumulate"
       d="m 16.9402,1039.1393 a 0.50005,0.50005 0 1 0 0,1 c 0.87108,0 1.6551,0.3524 2.22461,0.9219 0.28477,0.2848 0.5149,0.6242 0.67382,1 a 0.50005,0.50005 0 1 0 0.91992,-0.3906 c -0.20985,-0.4962 -0.51209,-0.9418 -0.88671,-1.3164 -0.74932,-0.7493 -1.79031,-1.2149 -2.93164,-1.2149 z"
       id="path18914"
       inkscape:connector-curvature="0" />
    <path
       style="color:#000000;font-style:normal;font-variant:normal;font-weight:normal;font-stretch:normal;font-size:medium;line-height:normal;font-family:sans-serif;text-indent:0;text-align:start;text-decoration:none;text-decoration-line:none;text-decoration-style:solid;text-decoration-color:#000000;letter-spacing:normal;word-spacing:normal;text-transform:none;direction:ltr;writing-mode:lr-tb;baseline-shift:baseline;text-anchor:start;white-space:normal;clip-rule:nonzero;display:inline;overflow:visible;visibility:visible;opacity:1;isolation:auto;mix-blend-mode:normal;color-interpolation:sRGB;color-interpolation-filters:linearRGB;solid-color:#000000;solid-opacity:1;fill:#000000;fill-opacity:1;fill-rule:evenodd;stroke:none;stroke-width:1;stroke-linecap:round;stroke-linejoin:round;stroke-miterlimit:4;stroke-dasharray:none;stroke-dashoffset:0;stroke-opacity:1;color-rendering:auto;image-rendering:auto;shape-rendering:auto;text-rendering:auto;enable-background:accumulate"
       d="m 20.5066,1043.5104 a 0.50005,0.50005 0 0 0 -0.48633,0.4082 c -0.0418,0.2044 -0.10214,0.3999 -0.18164,0.5879 -0.0795,0.1879 -0.17801,0.368 -0.29101,0.5352 -0.11304,0.1673 -0.24051,0.3226 -0.38281,0.4648 a 0.50005,0.50005 0 1 0 0.70703,0.7071 c 0.18739,-0.1874 0.35695,-0.3929 0.50586,-0.6133 0.14891,-0.2204 0.27592,-0.455 0.38085,-0.7031 0.10489,-0.2481 0.18698,-0.5093 0.24219,-0.7793 a 0.50005,0.50005 0 0 0 -0.49414,-0.6075 z"
       id="path18916"
       inkscape:connector-curvature="0" />
  </g>
</svg>
